<?xml version="1.0" standalone="no"?>
<!DOCTYPE svg PUBLIC "-//W3C//DTD SVG 1.1//EN" "http://www.w3.org/Graphics/SVG/1.1/DTD/svg11.dtd" >
<svg xmlns="http://www.w3.org/2000/svg">
<metadata></metadata>
<defs>
<font id="BertholdAkzidenzGroteskBELiRg" horiz-adv-x="641" >
<font-face units-per-em="2048" ascent="1638" descent="-410" />
<missing-glyph horiz-adv-x="468" />
<glyph horiz-adv-x="0" />
<glyph horiz-adv-x="2048" />
<glyph unicode=" "  horiz-adv-x="468" />
<glyph unicode="&#x09;" horiz-adv-x="468" />
<glyph unicode="&#xa0;" horiz-adv-x="468" />
<glyph unicode="!" horiz-adv-x="382" d="M186 676v770h101v-787l-25 -278h-55zM188 0v184h93v-184h-93z" />
<glyph unicode="&#x22;" horiz-adv-x="811" d="M154 1448q0 45 25 65.5t57 20.5q34 0 58.5 -24t18.5 -64l-65 -520h-35l-57 493q0 5 -1 14.5t-1 14.5zM496 1448q0 45 25.5 65.5t56.5 20.5q35 0 59 -24t18 -64l-65 -520h-35l-57 493q0 5 -1 15t-1 14z" />
<glyph unicode="#" horiz-adv-x="1193" d="M12 539v84h363l31 227h-347v84h359l69 512h88l-67 -512h237l74 512h82l-67 -512h348v-84h-361l-33 -227h351v-84h-363l-78 -539h-86l78 539h-239l-78 -539h-86l75 539h-350zM463 623h237l33 227h-237z" />
<glyph unicode="$" horiz-adv-x="768" d="M96 436h92q0 -106 3 -145.5t14 -71.5q15 -45 48 -75.5t67 -42t69 -11.5q55 0 105 29q55 33 73.5 85t18.5 122q0 41 -4 72t-20 64t-28 53t-49 58.5t-60 60.5t-83 77q-91 82 -136 145t-58 114.5t-13 131.5q0 69 16 119.5t37 78t56 45.5t58 23t58 10v74h60v-74 q37 -5 66.5 -15t51.5 -21.5t39 -31t28 -35t18.5 -43t11.5 -45.5t5.5 -51.5t2 -52t0.5 -55.5h-96q0 38 -0.5 56.5t-2 49.5t-6 45.5t-11.5 36t-19 32t-28.5 21.5t-39.5 15t-53 4q-37 0 -65 -8.5t-44 -26t-26 -34t-13.5 -41.5t-4.5 -38.5t-1 -35.5q0 -60 6 -93t35 -76.5 t73 -87.5t136 -132q6 -5 9 -8q110 -105 150 -185.5t40 -187.5q0 -295 -260 -334v-141h-62v139q-155 24 -219 133q-21 37 -31.5 87.5t-12 91t-1.5 126.5z" />
<glyph unicode="%" horiz-adv-x="1193" d="M41 752v475q0 21 0.5 34t4 39t10.5 43t21.5 39.5t35 35.5t52.5 22.5t73 9.5q37 0 66.5 -8.5t48 -20.5t31.5 -33.5t19.5 -38t10 -45t4 -44t0.5 -43.5v-467q0 -218 -187 -218q-54 0 -92.5 19.5t-56.5 44t-28.5 61t-11.5 54.5t-1 41zM119 760q0 -22 0.5 -35t6.5 -38 t16.5 -40t33.5 -27t55 -12q111 0 111 142v475q0 28 -1 42.5t-6.5 37.5t-16.5 34.5t-33 21t-54 9.5t-55 -10t-33.5 -22t-16.5 -33.5t-6.5 -33t-0.5 -30.5v-481zM186 -119l750 1727q27 -10 53 -25l-751 -1726q-12 7 -52 24zM766 211v473q0 21 0.5 34t4 39t10.5 43t21.5 39.5 t35 35.5t52.5 22.5t73 9.5q37 0 66.5 -8.5t48 -20.5t31.5 -33.5t19.5 -38t10 -45t4 -44t0.5 -43.5v-467q0 -217 -187 -217q-190 0 -190 221zM844 217q0 -17 0.5 -27.5t3 -31.5t10 -34t19 -28t32 -22.5t47.5 -7.5q111 0 111 141v477q0 27 -1 41t-6.5 37t-16.5 34.5t-33 21 t-54 9.5t-55 -10t-33.5 -22t-16.5 -33.5t-6.5 -33t-0.5 -30.5v-481z" />
<glyph unicode="&#x26;" horiz-adv-x="894" d="M66 270q0 61 14.5 116t47.5 109.5t58.5 89.5t73.5 93q-22 63 -33.5 100.5t-24 103.5t-12.5 124q0 107 50 175t147 68q77 0 125.5 -46.5t48.5 -131.5q0 -47 -13.5 -93.5t-46.5 -102t-60 -93.5t-81 -110q109 -242 254 -479q35 48 57 105t31 126.5t11 128.5t0 147h90 q0 -225 -28 -348.5t-103 -222.5q60 -51 143 -51q29 0 43 2v-84q-105 0 -152 13t-98 52q-28 -22 -49.5 -35.5t-73 -28.5t-114.5 -15q-141 0 -223 78t-82 210zM156 283q0 -15 2 -33t14 -53.5t33.5 -62t66.5 -47.5t107 -21q45 0 81.5 10t53 20t37.5 27q-151 236 -252 461 q-143 -177 -143 -301zM274 1001q0 -113 52 -235q33 45 47.5 66t43.5 68.5t42.5 88.5t13.5 78q0 45 -24 74.5t-68 29.5q-37 0 -61 -22t-32.5 -57t-11 -54t-2.5 -37z" />
<glyph unicode="'" horiz-adv-x="425" d="M133 1448q0 45 28.5 65.5t55.5 20.5q33 0 57.5 -23.5t18.5 -64.5l-66 -520h-34l-58 493q0 5 -1 14.5t-1 14.5z" />
<glyph unicode="(" horiz-adv-x="468" d="M59 596q0 228 82 444q38 100 85 182.5t78.5 122.5t86.5 103v-115q-38 -53 -58 -83t-57 -109t-65 -174q-59 -189 -59 -383q0 -187 59 -396q25 -87 62.5 -164.5t59 -108.5t60.5 -83v-117q-45 48 -71.5 79t-68.5 97.5t-77 147.5q-117 276 -117 557z" />
<glyph unicode=")" horiz-adv-x="468" d="M76 1331v119q45 -48 71.5 -79.5t68.5 -98t77 -148.5q117 -276 117 -555q0 -223 -82 -446q-37 -99 -84 -181t-79.5 -123t-86.5 -102v115q38 52 58.5 83t57 110t64.5 174q59 186 59 381q0 189 -59 395q-25 89 -62.5 166t-59.5 109t-60 81z" />
<glyph unicode="*" horiz-adv-x="555" d="M53 1251l21 68l166 -47v174h73v-174l168 55l23 -63l-170 -64l102 -141l-57 -43l-105 141l-92 -141l-61 43l98 145z" />
<glyph unicode="+" horiz-adv-x="1024" d="M63 551v90h406v399h90v-399h399v-90h-399v-404h-90v404h-406z" />
<glyph unicode="," horiz-adv-x="299" d="M102 -139q32 21 42 47t10 92h-50v186h93v-186q0 -61 -13.5 -99t-31 -53.5t-50.5 -31.5v45z" />
<glyph unicode="-" horiz-adv-x="512" d="M76 555v88h362v-88h-362z" />
<glyph unicode="." horiz-adv-x="299" d="M106 0v184h91v-184h-91z" />
<glyph unicode="/" d="M70 0l409 1446h92l-407 -1446h-94z" />
<glyph unicode="0" horiz-adv-x="724" d="M74 326v804q0 322 301 322q109 0 184 -55q47 -36 71.5 -97.5t24.5 -191.5v-799q0 -78 -23 -137.5t-55 -91t-75 -51t-74.5 -24.5t-62.5 -5q-110 0 -183 55q-108 81 -108 271zM168 346q0 -48 2 -74.5t15 -63.5t40 -63q55 -55 137 -55q83 0 141 55t58 162v838q0 56 -12.5 97 t-31 63t-46 35t-50 16.5t-50.5 3.5q-42 0 -75 -9.5t-54 -23t-36 -36t-22 -40.5t-11 -44.5t-4.5 -40.5t-0.5 -36v-784z" />
<glyph unicode="1" horiz-adv-x="724" d="M102 1155v80q99 14 161 69t87 134h92v-1438h-102v1260q-67 -57 -117 -76.5t-121 -28.5z" />
<glyph unicode="2" horiz-adv-x="724" d="M84 0v104q0 58 219 371q99 138 146 235.5t60 172.5t13 198q0 32 -0.5 49t-3 51.5t-8 54.5t-17 47t-28 42t-42 26t-58.5 11q-34 0 -60.5 -10.5t-43.5 -25t-29 -40.5t-18 -46.5t-9 -55.5t-3.5 -54t-0.5 -53v-98h-90v137q0 33 0.5 52.5t5.5 59t13.5 64.5t27 57.5t44.5 52 t67 33t93 13.5q90 0 156 -49q52 -41 74 -106t22 -179q0 -127 -6 -196t-34.5 -153t-77 -162.5t-142.5 -209.5q-98 -137 -123.5 -179.5t-60.5 -127.5h453v-86h-539z" />
<glyph unicode="3" horiz-adv-x="724" d="M72 440h90q5 -158 12.5 -212t34.5 -91q50 -67 151 -67q80 0 136.5 56t56.5 171q0 130 -2.5 186.5t-13.5 91.5q-10 32 -29 57.5t-47 41t-52.5 25.5t-60.5 16t-55 8t-51 4v94q127 0 198.5 58.5t71.5 152.5v121q0 34 -2 57.5t-11 54.5t-25 49.5t-47 32t-75 13.5 q-31 0 -56 -8t-40.5 -18.5t-26.5 -29t-16.5 -33t-8 -36.5t-3 -32.5t-0.5 -28.5v-154h-90v158q0 24 0.5 39t5 46t13.5 52t27 48t43.5 43.5t66 28t91.5 11.5t91 -12.5t65.5 -30t43.5 -45.5t26.5 -50t13.5 -52t5.5 -43.5t0.5 -32.5v-140q0 -39 -8 -72.5t-18 -56.5t-30 -44 t-34.5 -33t-40.5 -25t-38 -18t-38 -15q26 -6 39.5 -9.5t40.5 -12.5t42.5 -19.5t37.5 -27t35 -38.5t26 -51t19 -68.5t6 -86.5v-154q0 -21 -0.5 -37t-6.5 -52.5t-16 -64t-31.5 -61.5t-51.5 -56.5t-77.5 -38t-107.5 -15.5q-61 0 -124 26t-103 90q-31 50 -39.5 112.5 t-13.5 227.5z" />
<glyph unicode="4" horiz-adv-x="724" d="M39 461v94l373 881h127v-889h172v-86h-172v-461h-93v461h-407zM131 547h313v756z" />
<glyph unicode="5" horiz-adv-x="724" d="M94 309v146h90v-113q0 -36 0.5 -55t3.5 -51.5t9 -50.5t18 -41t29 -35t43.5 -20.5t60.5 -8.5q29 0 53 5.5t41.5 13.5t31 24t22 29t14.5 37.5t9 41t5 47.5t2 48.5v52.5v299q0 28 -1.5 48t-9.5 53.5t-23.5 55t-46.5 38t-74 16.5q-172 0 -172 -199h-76v750h475v-88h-383v-430 q28 18 43.5 26.5t49.5 18.5t71 10q239 0 239 -328v-270q0 -36 -0.5 -56t-2.5 -57t-6.5 -59t-13.5 -54.5t-22 -52.5t-33 -43t-45.5 -35.5t-60.5 -21t-78 -8.5q-54 0 -97 13t-70 31t-46 48.5t-28.5 54.5t-14.5 61.5t-5.5 57t-0.5 51.5z" />
<glyph unicode="6" horiz-adv-x="724" d="M98 330v825q0 153 80 227q82 74 215 74q74 0 127.5 -24t81.5 -60q19 -24 30.5 -51t16 -71.5t5.5 -78.5t1 -108l-92 -2q0 41 -0.5 61.5t-2.5 55.5t-6.5 53t-12.5 44t-20.5 39t-30.5 27t-43.5 19.5t-57.5 5.5q-75 0 -127 -41q-25 -19 -40 -43t-21 -52.5t-7 -45t-1 -45.5 v-348q29 24 50 39t68 32t99 17q68 0 120 -28.5t82 -74.5q14 -22 20.5 -39t13.5 -71.5t7 -141.5v-266q0 -66 -21.5 -116t-52.5 -77.5t-71.5 -45t-72 -22.5t-60.5 -5q-116 0 -189 61q-51 42 -69.5 105.5t-18.5 171.5zM190 340q0 -25 0.5 -41t4 -46t10 -50t20 -44.5t32.5 -39 t48.5 -25t67.5 -10.5q74 0 123 39q65 50 65 160v299q0 206 -158 206q-55 0 -106 -26q-49 -26 -78 -71.5t-29 -137.5v-213z" />
<glyph unicode="7" horiz-adv-x="724" d="M98 1350v88h553v-88q-53 -119 -80.5 -184t-65.5 -175t-71 -235q-90 -352 -90 -592v-164h-100v96q0 291 80 611q35 143 75.5 263.5t68 184.5t87.5 195h-457z" />
<glyph unicode="8" horiz-adv-x="724" d="M84 303v248q0 55 12 98.5t25.5 67.5t41 45.5t40 27.5t41.5 19q-83 37 -111.5 82t-28.5 127v201q0 17 0.5 29.5t5.5 40t14 47.5t28 45t45.5 41t69 27t95.5 11t95.5 -10t70 -25t47 -39.5t29.5 -45.5t15.5 -51t6.5 -49t1 -46v-168q0 -45 -8.5 -79.5t-20 -55t-34 -37.5 t-39.5 -25t-48 -20q90 -33 129 -92t39 -191v-264q0 -16 -0.5 -29.5t-6 -43.5t-15 -54t-30 -53.5t-49 -49t-73.5 -33t-102 -13.5q-127 0 -205 69q-49 45 -64.5 104.5t-15.5 143.5zM178 322q0 -24 0.5 -39.5t4 -44t10.5 -48t21 -43.5t33.5 -38.5t50 -24.5t69.5 -10 q184 0 184 215v252q0 23 -1 41t-11 54.5t-27 61t-54.5 44.5t-88.5 20q-191 0 -191 -213v-227zM199 1018q0 -46 16 -79.5t35 -49t46.5 -24.5t40 -10t25.5 -1q15 0 30 1.5t42.5 11.5t47 27.5t35 54.5t15.5 87v144q0 23 -0.5 36t-3.5 36.5t-9.5 37.5t-19 32t-30.5 28t-46.5 17 t-64.5 7q-45 0 -77.5 -13.5t-48 -30t-23.5 -43t-9 -40.5t-1 -35v-194z" />
<glyph unicode="9" horiz-adv-x="724" d="M68 389h94v-110q0 -201 176 -201q199 0 199 215v369q-92 -89 -215 -89q-115 0 -185 66q-24 23 -39 52t-20.5 62t-6.5 51.5t-1 47.5v254q0 61 2 94t14.5 80.5t38.5 81.5q38 50 99.5 74t129.5 24q133 0 209 -76q25 -26 40.5 -56t21 -69t7 -65t1.5 -74v-819 q0 -21 -0.5 -36.5t-6.5 -51t-16 -62t-31.5 -59.5t-51.5 -54.5t-77.5 -36.5t-107.5 -15q-78 0 -143 29.5t-97 88.5q-24 46 -29 96t-5 189zM166 831q0 -79 42 -123t109 -44q86 0 144 47q50 38 64 91t14 130v192q0 27 -0.5 45.5t-4.5 46.5t-11 46.5t-21 40.5t-34 35t-50 21.5 t-68 8.5q-31 0 -59 -7t-58.5 -25.5t-48.5 -57.5t-18 -96v-351z" />
<glyph unicode=":" horiz-adv-x="382" d="M188 0v184h91v-184h-91zM188 748v184h91v-184h-91z" />
<glyph unicode=";" horiz-adv-x="382" d="M184 -139q31 22 42 48.5t10 90.5h-50v186h93v-186q0 -88 -22.5 -124t-70.5 -60zM186 745v187h95v-187h-95z" />
<glyph unicode="&#x3c;" horiz-adv-x="1024" d="M0 666v120l1024 521v-103l-934 -477l934 -487v-101z" />
<glyph unicode="=" horiz-adv-x="1024" d="M0 375v90h1024v-90h-1024zM0 735v90h1024v-90h-1024z" />
<glyph unicode="&#x3e;" horiz-adv-x="1024" d="M0 139v101l934 487l-934 477v103l1024 -521v-120z" />
<glyph unicode="?" horiz-adv-x="724" d="M143 1130q0 340 254 340q89 0 142.5 -42t78.5 -101q33 -82 33 -268q0 -66 -5 -109.5t-22.5 -85.5t-32 -66.5t-52.5 -80.5q-66 -97 -80.5 -126.5t-14.5 -74.5v-160h-96v168q0 59 15 93t75 124q76 109 96.5 158t20.5 141q0 53 -1.5 87.5t-6.5 79t-15.5 72.5t-28 54 t-45.5 38.5t-65 12.5q-32 0 -57 -11.5t-41 -27.5t-27 -43.5t-16.5 -48.5t-8 -53t-3 -47t-0.5 -41q0 -19 1 -61t1 -64h-95q-1 28 -2 58.5t-1.5 49t-0.5 35.5zM348 0v184h96v-184h-96z" />
<glyph unicode="@" horiz-adv-x="1835" d="M141 475q0 149 44 294t128.5 268.5t198 218t262 148.5t311.5 54q286 0 447.5 -162t161.5 -426q0 -177 -65.5 -345t-174.5 -273t-227 -105q-44 0 -86 23q-27 17 -43.5 40t-21 45.5t-6 48t0.5 46.5q-27 -36 -48.5 -60.5t-63 -61t-93.5 -56.5t-110 -20q-106 0 -174 71 q-86 86 -86 254q0 142 58 275t157.5 217t210.5 84q176 0 247 -209l37 162h109l-66 -297q-61 -278 -61 -363q0 -47 20.5 -80t61.5 -33q48 0 107.5 51t112 134.5t88.5 204.5t36 247q0 241 -146.5 376.5t-398.5 135.5q-226 0 -422 -125t-311 -334t-115 -448q0 -158 57.5 -284.5 t155.5 -205t223 -120t267 -41.5q188 0 362 74q62 25 115.5 54.5t97.5 63.5t66 53t57 52l47 -53q-43 -42 -73.5 -69t-99 -73t-142.5 -80q-209 -98 -428 -98q-123 0 -236.5 28t-213.5 87.5t-174.5 144t-117.5 204.5t-43 263zM621 477q0 -105 52 -167t136 -62q63 0 124 39 t105 108q40 60 67.5 152.5t27.5 163.5q0 61 -15 108t-37 72.5t-50.5 41.5t-50 20.5t-42.5 4.5q-74 0 -136.5 -48.5t-100.5 -122t-59 -155.5t-21 -155z" />
<glyph unicode="A" horiz-adv-x="768" d="M49 0l264 1454h140l262 -1454h-107l-73 440h-304l-75 -440h-107zM248 535h268l-113 669q-2 9 -5 30.5t-7.5 53.5t-7.5 53q-8 -75 -16 -124z" />
<glyph unicode="B" horiz-adv-x="768" d="M123 0v1448h260q27 0 42.5 -0.5t45.5 -5t49 -13t42.5 -26t37 -42t23.5 -63.5t10 -88v-206q0 -50 -10 -87t-24 -59t-39 -37.5t-46 -22.5t-53 -14q131 -20 176 -77.5t45 -190.5v-246q0 -55 -10.5 -98.5t-38 -84.5t-84 -64t-139.5 -23h-287zM221 823h98q59 0 101 14 t63.5 32.5t33 49.5t13.5 52.5t2 54.5v174q0 94 -40 127t-144 33h-127v-537zM223 88h170q38 0 67 6t49 16t34 27t21.5 33.5t11.5 42.5t5 47t1 53v205q0 35 -4 61.5t-19 57.5t-41 51t-74.5 33.5t-115.5 13.5h-105v-647z" />
<glyph unicode="C" horiz-adv-x="768" d="M106 328v784q0 71 2.5 105.5t20 80t53.5 80.5q73 82 211 82q96 0 162 -41q113 -68 113 -237v-203h-101q0 180 -3 228t-21 81q-20 39 -58 59.5t-82 20.5q-198 0 -198 -235v-705v-61.5t2 -57t5.5 -56t10.5 -49t16.5 -45.5t25 -35t35 -28.5t46.5 -16.5t60 -7q176 0 176 202 v224h102v-224q0 -24 -0.5 -40.5t-6.5 -50.5t-16 -58t-32 -54t-52.5 -49t-78.5 -32t-109 -13q-139 0 -219 95q-34 42 -49 97.5t-15 158.5z" />
<glyph unicode="D" horiz-adv-x="811" d="M123 0v1448h123q83 0 147 -11.5t112 -33t82 -58.5t56 -82t34.5 -110t17.5 -135t5 -164v-322q0 -211 -30 -299q-14 -42 -38 -79t-65 -73.5t-106.5 -58.5t-147.5 -22h-190zM223 90q113 0 163.5 8t100.5 43q25 19 42 40t35.5 62t28 112t9.5 169v330q0 228 -33 328 q-12 36 -31 63.5t-38 45.5t-49 30.5t-51.5 19t-58.5 9.5t-57.5 3.5t-60.5 0.5v-1264z" />
<glyph unicode="E" horiz-adv-x="681" d="M121 0v1446h512v-90h-412v-557h338v-88h-340v-621h412v-90h-510z" />
<glyph unicode="F" d="M119 0v1446h512v-90h-412v-557h363v-88h-363v-711h-100z" />
<glyph unicode="G" horiz-adv-x="811" d="M113 373v760q0 29 0.5 48t6.5 57t16.5 64t33 59t53 53t80 34t111.5 14q103 0 174 -45q106 -70 106 -235v-201h-98v149q0 29 -0.5 45t-4 46t-10 47.5t-20.5 40.5t-33.5 36t-50 22t-69.5 9q-104 0 -156 -69q-28 -38 -34.5 -80.5t-6.5 -141.5v-684q0 -159 20 -213 q21 -59 66 -89.5t100 -30.5q76 0 140.5 71t64.5 201v231h-213v88h311v-659h-75v115q-11 -17 -20 -29.5t-31.5 -34.5t-46 -35.5t-61.5 -24.5t-81 -11q-148 0 -217 110q-55 85 -55 283z" />
<glyph unicode="H" horiz-adv-x="811" d="M119 0v1446h100v-643h373v643h100v-1446h-100v715h-373v-715h-100z" />
<glyph unicode="I" horiz-adv-x="342" d="M119 0v1446h104v-1446h-104z" />
<glyph unicode="J" horiz-adv-x="681" d="M86 248v207h98v-187q0 -81 17 -118q15 -37 50.5 -58.5t82.5 -21.5q9 0 20.5 1.5t33 12t38 27.5t29 53t12.5 84v1198h100v-1182q0 -18 -1 -34t-6 -47t-14 -55.5t-28 -53.5t-45 -48.5t-67.5 -32.5t-92.5 -13q-25 0 -51 5t-59 22t-57.5 44.5t-42 78.5t-17.5 118z" />
<glyph unicode="K" horiz-adv-x="724" d="M119 0v1446h100v-709l361 709h112l-307 -576l311 -870h-106l-266 750l-107 -201v-549h-98z" />
<glyph unicode="L" d="M119 0v1446h100v-1356h377v-90h-477z" />
<glyph unicode="M" horiz-adv-x="1024" d="M111 0l12 1446h147l162 -832q50 -261 80 -460q30 236 59 383l179 909h145l14 -1446h-94l-4 1085q0 140 6 273l-260 -1358h-94l-260 1364q6 -147 6 -467v-897h-98z" />
<glyph unicode="N" horiz-adv-x="811" d="M113 0v1446h147l350 -1403q-10 190 -10 348l-8 1055h98v-1446h-153l-342 1382q8 -221 8 -354l4 -1028h-94z" />
<glyph unicode="O" horiz-adv-x="811" d="M113 309v815q0 153 51 226q77 112 248 112q162 0 233 -106q24 -35 36 -85t13.5 -83.5t1.5 -93.5v-797q0 -129 -47 -199q-31 -48 -93.5 -82t-154.5 -34q-47 0 -86 8.5t-67 22t-50 35t-36 41t-24 47.5t-14.5 47.5t-7 48.5t-3 42t-0.5 35zM209 348q0 -104 16.5 -156.5 t61.5 -85.5q49 -34 119 -34q56 0 96 24q32 18 52.5 43.5t30 59t12.5 63.5t3 72v704q0 71 -2.5 112.5t-16 92t-40.5 78.5q-51 51 -135 51q-87 0 -138 -51q-59 -57 -59 -176v-797z" />
<glyph unicode="P" horiz-adv-x="768" d="M117 -2v1450h225q113 0 179.5 -15.5t109.5 -70.5q32 -41 41.5 -94t9.5 -144v-163q0 -39 -1.5 -61.5t-9 -59t-27 -66t-50.5 -53.5q-81 -64 -227 -64h-148v-659h-102zM217 743h162q56 0 96 14.5t60.5 34.5t32 52.5t14 57t2.5 59.5v124q0 60 -2.5 98.5t-11.5 72t-23 52 t-38.5 32t-57 18t-80.5 4.5h-154v-619z" />
<glyph unicode="Q" horiz-adv-x="811" d="M111 469v653q0 344 301 344q59 0 105.5 -15t75.5 -36.5t50 -55t31 -60t15.5 -62.5t6 -52t0.5 -38v-801q0 -70 -9 -122t-29 -87t-39 -56.5t-50 -45.5l189 -172l-62 -64l-217 195q-52 -10 -82 -10q-149 0 -223 98q-42 59 -52.5 138.5t-10.5 248.5zM209 424q0 -44 0.5 -68 t4 -67t10 -67.5t20.5 -56.5t33.5 -49t50 -29.5t69.5 -12.5q41 0 74 13t53.5 32t35.5 47.5t22 51.5t11 53t4.5 43t0.5 30v805q0 103 -47 164t-145 61q-36 0 -65 -8t-49 -23t-35 -31.5t-23.5 -41t-14 -42.5t-7.5 -44t-2.5 -39t-0.5 -33v-688z" />
<glyph unicode="R" horiz-adv-x="768" d="M121 0v1446h278q41 0 73 -3t75 -18t71 -40t48 -74t20 -117v-225q0 -28 -1.5 -47t-12 -56.5t-30 -63.5t-60.5 -52t-99 -37l267 -713h-107l-264 705h-158v-705h-100zM221 791h182q177 0 177 153v223q0 60 -12 99.5t-37 59.5t-52.5 27t-68.5 7h-189v-569z" />
<glyph unicode="S" horiz-adv-x="768" d="M86 270v203h100v-115q0 -96 7 -140.5t36 -82.5q53 -67 168 -67q103 0 145 58t42 177q0 83 -20 140.5t-60.5 108.5t-130.5 140q-52 52 -76 77t-60 66.5t-52 70t-33.5 68.5t-24 81.5t-6.5 91.5q0 45 3.5 80.5t19.5 83t43.5 79t80 54t125.5 22.5q44 0 80.5 -7.5t62.5 -18.5 t47 -30.5t34 -37t22.5 -45t14 -47t7 -51t3 -48.5t0.5 -48v-105h-99v129q0 37 -1 58t-10 57t-25.5 56t-50.5 36t-83 16q-95 0 -134.5 -53.5t-39.5 -163.5q0 -75 17 -126t67.5 -117t161.5 -179q57 -59 81.5 -85.5t58 -70t46 -77t22 -80.5t9.5 -106q0 -35 -1.5 -62.5t-8.5 -65 t-19 -66t-34 -58.5t-52.5 -49t-76.5 -31.5t-103 -12.5q-135 0 -219 72.5t-84 220.5z" />
<glyph unicode="T" d="M14 1356v92h611v-92h-258v-1356h-101v1356h-252z" />
<glyph unicode="U" horiz-adv-x="811" d="M117 342v1106h98v-1122q0 -26 0.5 -40.5t2.5 -41.5t7.5 -43.5t14 -39.5t23 -37t34 -27.5t48 -20t63.5 -6.5q102 0 149 69q23 30 29 76.5t6 169.5v1063h100v-1159q0 -21 -0.5 -36.5t-6.5 -51t-16 -61.5t-31.5 -59t-51.5 -54.5t-77.5 -36.5t-107.5 -15q-111 0 -184 56 q-36 27 -57.5 61.5t-30 81.5t-10.5 78t-2 90z" />
<glyph unicode="V" horiz-adv-x="724" d="M55 1446h105l141 -879q35 -222 53 -393q25 189 64 416l147 856h103l-262 -1446h-105z" />
<glyph unicode="W" horiz-adv-x="1150" d="M43 1446h102q11 -70 66.5 -401.5t84.5 -531t42 -357.5q17 174 53 413l135 877h107l139 -887q30 -198 51 -391q21 200 32.5 287t47.5 309l107 682h100l-236 -1446h-108l-135 905q-41 286 -51 381q-25 -225 -84 -608q-81 -518 -103 -678h-104z" />
<glyph unicode="X" horiz-adv-x="724" d="M49 0l262 797l-202 649h104l123 -420q25 -96 33 -137q13 59 51 180l117 377h104l-219 -651l254 -795h-105l-163 532q-21 63 -43 168q-14 -69 -41 -151l-172 -549h-103z" />
<glyph unicode="Y" horiz-adv-x="724" d="M29 1446h106l230 -680l231 680h111l-295 -807v-639h-99v639z" />
<glyph unicode="Z" horiz-adv-x="724" d="M55 0v66l480 1292h-394v88h510v-68q-256 -675 -483 -1288h481v-90h-594z" />
<glyph unicode="[" horiz-adv-x="468" d="M109 -289v1737h290v-76h-202v-1583h202v-78h-290z" />
<glyph unicode="\" d="M70 1446h90l413 -1446h-94z" />
<glyph unicode="]" horiz-adv-x="468" d="M66 1372v76h294v-1737h-286v78h198v1583h-206z" />
<glyph unicode="^" horiz-adv-x="1492" d="M348 743l352 705h103l344 -705h-115l-282 590l-289 -590h-113z" />
<glyph unicode="_" horiz-adv-x="1024" d="M-20 -154h1064v-102h-1064v102z" />
<glyph unicode="`" horiz-adv-x="468" d="M45 1389h199l178 -224h-68z" />
<glyph unicode="a" d="M57 242q0 57 14.5 104.5t34.5 78.5t54 60t59.5 44t65.5 36l1 1h1l1 1h1l1 1h1l1 1h1l1 1l1 1h1l1 1h1l1 1h2l1 1h1l1 1h1q97 52 134 79q8 6 18 14v118q0 41 -3.5 66.5t-16 51t-40 38t-71.5 12.5q-33 0 -57.5 -7.5t-39.5 -25.5t-23.5 -35t-12 -50.5t-4.5 -56t-1 -66.5h-88 q0 35 0.5 53t2.5 51t6 50.5t12 44.5t19.5 42t29.5 33t41 27t54.5 15.5t70.5 6.5q43 0 77 -9.5t55.5 -23.5t37 -36.5t23 -40t11.5 -43.5t4.5 -39t0.5 -33v-692q0 -24 15.5 -30.5t45.5 -6.5v-82q-71 0 -102.5 15.5t-44.5 64.5q-31 -24 -51.5 -37.5t-62 -28t-85.5 -14.5 q-102 0 -152.5 69t-50.5 173zM145 240q0 -68 33 -113t101 -45q42 0 79 17t55 33.5t46 47.5v391q-24 -16 -123 -71q-41 -23 -61 -35.5t-50 -37t-44 -47.5t-25 -59.5t-11 -80.5z" />
<glyph unicode="b" horiz-adv-x="681" d="M106 0v1446h87v-504q18 22 28.5 33.5t34 30t55 27.5t70.5 9q41 0 74 -12t54 -29t35.5 -44.5t21.5 -49t11 -53.5t4.5 -47t0.5 -39v-528q0 -111 -62 -178.5t-155 -67.5q-106 0 -168 90v-84h-91zM195 279q0 -100 51 -153.5t112 -53.5q52 0 86 34q52 50 52 164v502 q0 87 -33.5 138t-104.5 51q-67 0 -115 -46.5t-48 -140.5v-495z" />
<glyph unicode="c" d="M82 295v475q0 18 0.5 31t5 42.5t12.5 51t25.5 48.5t41.5 44.5t63 30t87 12.5q238 0 238 -276v-90h-86q0 94 -1.5 124.5t-10.5 59.5q-14 49 -48.5 77.5t-86.5 28.5q-36 0 -64 -11t-43.5 -31t-25.5 -38.5t-13.5 -44t-4.5 -37.5t-1 -28v-442q0 -32 0.5 -49t3.5 -47 t8.5 -47.5t17.5 -39.5t29 -34t43 -20.5t60 -8.5q143 0 143 168v149h90v-133q0 -23 -0.5 -37.5t-5.5 -45t-13.5 -52t-27 -48.5t-44.5 -43.5t-67 -28t-92 -11.5q-43 0 -79.5 11t-58.5 28.5t-32 27.5t-16 19q-21 29 -32 70.5t-13 71t-2 73.5z" />
<glyph unicode="d" horiz-adv-x="681" d="M98 252v516q0 67 16 117.5t38.5 77t53.5 43t53.5 20.5t45.5 4q39 0 69 -8.5t52.5 -26.5t33 -29.5t27.5 -33.5v514h86v-1446h-79v109q-66 -117 -191 -117q-42 0 -75.5 12.5t-54.5 30t-36.5 45t-22.5 49t-11 51t-4.5 42.5t-0.5 30zM184 268q0 -198 142 -198q41 0 74.5 19 t51 45.5t26.5 49t9 35.5v547q0 15 -7 40.5t-22 59.5t-49.5 58t-80.5 24q-13 0 -26.5 -2t-36.5 -12t-39.5 -28t-29 -53.5t-12.5 -84.5v-500z" />
<glyph unicode="e" d="M88 250v538q0 118 60.5 183t170.5 65q44 0 79.5 -8t59.5 -25t42 -35t29 -46.5t17.5 -49.5t9 -55.5t3 -52.5t0.5 -51v-207h-385v-254q0 -174 152 -174q102 0 133 86q10 26 12 52.5t2 139.5h86v-114q0 -117 -61.5 -180.5t-175.5 -63.5q-100 0 -162 57q-41 35 -56.5 80.5 t-15.5 114.5zM174 578h297v190q0 18 -1 33t-8.5 47t-22 53.5t-44.5 39t-71 17.5q-150 0 -150 -198v-182z" />
<glyph unicode="f" horiz-adv-x="382" d="M35 948v84h123v207q0 18 0.5 29.5t4 35t10 40.5t20 37.5t32 33.5t48.5 22t67 9q17 0 53 -4v-80q-14 2 -35 2q-116 0 -116 -129v-203h127v-84h-131v-948h-86v948h-117z" />
<glyph unicode="g" horiz-adv-x="681" d="M96 -104h86q1 -19 2 -30t9.5 -34t22 -36.5t41.5 -24.5t67 -11q12 0 25 1t40 10t47 24.5t35.5 48.5t15.5 78v172q-25 -27 -43 -43t-55 -31.5t-82 -15.5q-42 0 -75 11.5t-54 28.5t-36 44.5t-22 49.5t-11 55t-4.5 50t-0.5 44v520q0 35 5 65.5t19.5 62t37 54t61 37t88.5 14.5 q35 0 64 -8.5t50.5 -26t32 -29t25.5 -30.5v88h88v-1081q0 -32 -1.5 -51t-8 -52t-24 -61.5t-45.5 -52.5q-66 -60 -174 -60q-88 0 -152 43q-32 22 -49 54.5t-20.5 57t-4.5 65.5zM190 283q0 -23 1 -38t4.5 -41.5t12 -44.5t23 -36t39 -27.5t56.5 -9.5q41 0 74.5 19.5t51 47 t26.5 51.5t9 38v577q0 13 -9 35t-26 47.5t-49 43.5t-71 18q-29 0 -52 -8t-38 -20t-25.5 -31.5t-15.5 -35.5t-7.5 -39.5t-3 -36t-0.5 -32.5v-477z" />
<glyph unicode="h" horiz-adv-x="681" d="M111 0v1448h88v-498q19 20 29 29.5t35 27.5t55 26.5t67 8.5q75 0 129 -41q33 -26 50.5 -65t19.5 -62t2 -57v-817h-88v764q0 29 -1 47t-8 49t-20.5 49t-41 32.5t-65.5 14.5q-66 0 -116 -47q-32 -32 -47 -90v-819h-88z" />
<glyph unicode="i" horiz-adv-x="299" d="M104 0v1032h86v-1032h-86zM104 1151v160h86v-160h-86z" />
<glyph unicode="j" horiz-adv-x="342" d="M14 -246q31 8 54 20.5t37 32t22 36.5t11.5 45.5t4 45.5t0.5 50v1046h86v-1093q0 -26 -1 -42.5t-6.5 -48.5t-19.5 -55.5t-36.5 -50t-61.5 -45.5t-90 -29v88zM143 1149v160h86v-160h-86z" />
<glyph unicode="k" d="M106 0v1446h87v-899l296 485h101l-240 -395l264 -637h-96l-225 545l-98 -162v-383h-89z" />
<glyph unicode="l" horiz-adv-x="299" d="M106 0v1446h89v-1446h-89z" />
<glyph unicode="m" horiz-adv-x="1067" d="M106 0v1030h91v-86q78 98 192 98q42 0 74 -12t52 -34.5t29 -38t19 -37.5q16 23 29 37.5t39 37.5t62 35t79 12q64 0 115 -35t67 -102q11 -43 11 -176v-729h-88v737q0 107 -9 142q-12 47 -46.5 65.5t-71.5 18.5t-68 -13.5t-49 -31.5t-30.5 -38t-17.5 -32t-5 -14v-834h-88 v813q0 53 -19 90q-15 27 -46 43.5t-67 16.5q-32 0 -61 -11t-47 -27t-31.5 -33t-19.5 -28t-6 -14v-850h-89z" />
<glyph unicode="n" horiz-adv-x="681" d="M113 0v1032h86v-100q28 49 71 78q53 32 119 32q59 0 107 -26q88 -51 88 -189v-827h-86v825q0 74 -38 108t-89 34q-80 0 -135 -62q-24 -30 -37 -67v-838h-86z" />
<glyph unicode="o" d="M80 248v540q0 59 17 105t42.5 72t60.5 43t65 22.5t61 5.5q49 0 87.5 -11.5t62.5 -27.5t41.5 -42t25.5 -46t12.5 -49.5t5 -43t0.5 -34.5v-489q0 -69 -9 -115t-36 -86q-66 -96 -199 -96q-78 0 -137 35q-60 34 -80 86.5t-20 130.5zM168 250q0 -170 147 -170q70 0 114 42 t44 136v514q0 178 -145 178q-46 0 -78 -15.5t-47.5 -35t-24 -52t-9.5 -51t-1 -48.5v-498z" />
<glyph unicode="p" horiz-adv-x="681" d="M111 -334v1364h88v-90q74 100 190 100q71 0 115.5 -39.5t62.5 -95.5q17 -54 17 -172v-500q0 -64 -19.5 -112.5t-51 -74t-66.5 -38t-72 -12.5q-48 0 -86.5 17t-54 32t-35.5 39v-418h-88zM199 193q0 -9 9 -26.5t26.5 -38.5t50.5 -36.5t73 -15.5q39 0 66.5 15t41 34t21 51 t8.5 51t1 49v525q0 49 -14 83.5t-36.5 50t-43 22t-40.5 6.5q-40 0 -73.5 -17t-51.5 -41t-28 -45t-10 -33v-634z" />
<glyph unicode="q" horiz-adv-x="681" d="M100 256v506q0 136 50 203q58 77 161 77q40 0 71 -9t51 -26.5t29.5 -29t20.5 -29.5v84h86v-1366h-86v430q-60 -102 -186 -102q-73 0 -125 45q-43 39 -57.5 91t-14.5 126zM186 336q0 -128 13 -166q14 -50 48.5 -74t74.5 -24q62 0 110 51q43 47 51 133v492q0 96 -44 154.5 t-115 58.5q-59 0 -97 -48q-26 -28 -33.5 -63.5t-7.5 -95.5v-418z" />
<glyph unicode="r" horiz-adv-x="425" d="M109 0v1030h84v-180q14 29 26 49t36 48.5t62.5 56t90.5 53.5v-117q-37 -10 -59 -20t-50 -31.5t-53 -61t-51 -100.5v-727h-86z" />
<glyph unicode="s" horiz-adv-x="598" d="M57 362h86v-90q0 -28 1 -45.5t9.5 -48.5t24 -49.5t47.5 -33.5t78 -15q152 0 152 172q0 29 -1.5 47.5t-11.5 40t-17 33t-33 37t-44 41t-65 55.5q-43 36 -65.5 56t-50 51t-40.5 57.5t-22 63t-9 79.5q0 221 217 221q44 0 79.5 -10t57.5 -24t38 -38t23.5 -43t11.5 -48 t4.5 -43.5t0.5 -39.5v-71h-88q0 38 -0.5 56t-1.5 47t-4.5 41.5t-9.5 31.5t-15 27t-22.5 17t-31.5 12t-42 3q-37 0 -63 -10t-38.5 -23t-19 -34.5t-7.5 -33.5t-1 -32q0 -33 2 -50t11.5 -41.5t32 -49t59.5 -59t98 -84.5q46 -37 67.5 -57.5t46 -54.5t33.5 -74t9 -95 q0 -256 -240 -256q-129 0 -190 70q-38 41 -47 99.5t-9 194.5z" />
<glyph unicode="t" horiz-adv-x="382" d="M16 948v84h109v262h90v-262h156v-84h-156v-772q0 -27 1.5 -39.5t8 -29t23 -23t43.5 -6.5q34 0 80 4v-80q-47 -6 -92 -6q-87 0 -119.5 29.5t-32.5 91.5v831h-111z" />
<glyph unicode="u" horiz-adv-x="681" d="M102 238v794h86v-774q0 -188 136 -188q30 0 55 10t40.5 23t29.5 34t20 34t14 32v829h88v-1030h-88v96q-15 -19 -27 -31.5t-35.5 -31.5t-55 -29t-68.5 -10q-62 0 -113 33q-29 19 -47 46.5t-25 60.5t-8.5 52.5t-1.5 49.5z" />
<glyph unicode="v" horiz-adv-x="555" d="M29 1030h90l121 -678q22 -128 34 -221q7 53 27 182l125 717h94l-196 -1030h-101z" />
<glyph unicode="w" horiz-adv-x="894" d="M29 1030h88l84 -512q42 -253 59 -381q15 113 39 242l115 651h71l142 -883q3 19 7.5 52.5t8.5 61.5t8 52q2 18 21.5 121t21.5 119l86 477h90l-198 -1030h-88l-107 657q-14 89 -26 203q-11 -80 -27 -170l-123 -690h-90z" />
<glyph unicode="x" d="M25 0l223 537l-203 493h92l117 -303q2 -5 12 -31t19 -50l12 -32q14 42 39 107l125 309h94l-207 -483l219 -547h-96l-133 348q-27 69 -39 123q-10 -35 -47 -131l-131 -340h-96z" />
<glyph unicode="y" horiz-adv-x="598" d="M18 -248q32 -4 45 -4q47 0 81 16.5t51 43.5t23.5 44.5t10.5 36.5l25 119l-223 1024h88l180 -856l182 856h92l-264 -1147q-14 -61 -37.5 -103t-47.5 -64.5t-62 -34.5t-67.5 -14.5t-76.5 -2.5v86z" />
<glyph unicode="z" horiz-adv-x="598" d="M74 0v76l352 868h-324v86h428v-69l-356 -875h356v-86h-456z" />
<glyph unicode="{" horiz-adv-x="724" d="M205 547v67q77 10 105 73t28 216v164q0 60 4.5 105t21 96t45.5 85.5t80.5 60t122.5 32.5v-64q-107 -25 -147.5 -89t-40.5 -216q0 -277 -18.5 -366.5t-106.5 -126.5v-6q36 -15 59 -39t36.5 -52.5t20 -81.5t8 -101.5t1.5 -135.5q0 -88 1.5 -127.5t10.5 -94.5t28.5 -80.5 t55.5 -49.5t92 -37v-64q-54 5 -97.5 21.5t-71.5 38t-48.5 54.5t-31 62.5t-16.5 71t-7.5 71.5t-1.5 72v134q0 163 -25 229.5t-108 77.5z" />
<glyph unicode="|" horiz-adv-x="468" d="M188 -512v2048h91v-2048h-91z" />
<glyph unicode="}" horiz-adv-x="724" d="M113 -221q107 25 147.5 89t40.5 216q0 277 18.5 367t106.5 127v6q-36 15 -59 39t-36.5 52.5t-20 81.5t-8 101t-1.5 135q0 88 -1.5 127.5t-10.5 94.5t-28.5 80.5t-55.5 49.5t-92 37v64q54 -5 97.5 -21.5t71.5 -38t48.5 -54.5t31 -62.5t16.5 -71t7.5 -71.5t1.5 -72v-133 q0 -163 25 -230t108 -78v-67q-77 -12 -105 -74t-28 -215v-164q0 -60 -4.5 -105t-21 -96t-45.5 -85.5t-80.5 -60t-122.5 -32.5v64z" />
<glyph unicode="~" horiz-adv-x="1492" d="M297 569q14 21 23 34t32 38.5t45.5 41t57.5 28t73 12.5q34 0 69.5 -9t64 -21t104.5 -46q97 -45 128 -57t60 -12q33 0 62.5 11t54.5 34.5t39.5 40t36.5 45.5l51 -80q-114 -154 -242 -154q-36 0 -73.5 12t-122.5 54q-69 32 -100 45.5t-67.5 24t-66.5 10.5t-54.5 -8.5 t-47.5 -29.5t-37 -38t-41 -53z" />
<glyph unicode="&#xa1;" horiz-adv-x="382" d="M96 1266v182h92v-182h-92zM98 0v788l19 279h53l29 -299v-768h-101z" />
<glyph unicode="&#xa2;" d="M82 295v475q0 72 17.5 123.5t49 78t62.5 39t72 17.5v127h59v-125q104 -11 154 -65q41 -48 50 -106t9 -195h-86q0 94 -1.5 124.5t-10.5 59.5q-14 49 -49 77.5t-86 28.5q-36 0 -64 -11t-43.5 -31t-25.5 -38.5t-13.5 -44t-4.5 -37.5t-1 -28v-442q0 -32 0.5 -49t3.5 -47 t8.5 -47.5t17.5 -39.5t29 -34t43 -20.5t60 -8.5q143 0 143 168v149h90v-133q0 -24 -0.5 -38.5t-4.5 -43t-11.5 -47.5t-23 -43.5t-37.5 -41t-56 -30.5t-78 -20v-139h-59v139q-44 4 -78.5 18.5t-56.5 32t-38 45.5t-23.5 50t-11.5 55.5t-4.5 50.5t-0.5 47z" />
<glyph unicode="&#xa3;" horiz-adv-x="768" d="M53 0v100q48 8 75 14.5t69.5 28t74.5 54.5q84 78 84 209q0 49 -13 91.5t-26 63.5t-34 47h-224v74h174q-37 71 -50 129.5t-13 192.5q0 56 1 86.5t9 74t23 74.5q65 121 211 121q73 0 130 -33.5t83 -95.5q16 -38 21 -89.5t5 -213.5h-92q0 169 -2 202q-10 144 -149 144 q-41 0 -70.5 -16t-43.5 -36.5t-22 -56t-9 -56t-1 -54.5q0 -155 12 -221t68 -152h221v-74h-174q18 -28 28.5 -47.5t22 -64t11.5 -95.5q0 -56 -14 -104t-32 -77t-48.5 -56.5t-49 -39.5t-47.5 -28q10 -1 68 -5t111.5 -7.5t70.5 -3.5q115 0 205 20v-88q-103 -20 -189 -20 q-24 0 -169.5 10t-172.5 10q-43 0 -133 -12z" />
<glyph unicode="&#xa4;" horiz-adv-x="1366" d="M141 223l150 148q-32 44 -44.5 64t-34.5 63t-31 89.5t-9 102.5q0 60 10 111t32 94.5t35.5 65t41.5 59.5l-146 145l68 68l143 -146q31 24 53.5 38.5t65 35.5t95.5 32t114 11q183 0 324 -117l147 146l68 -68l-146 -147q29 -40 42.5 -61.5t34 -64t29.5 -92t9 -110.5 t-11 -112.5t-32 -92t-36.5 -63t-39.5 -51.5l150 -150l-70 -67l-147 147q-33 -25 -53.5 -38.5t-62 -34.5t-93.5 -31.5t-113 -10.5q-64 0 -117 10.5t-93.5 30.5t-63.5 36t-52 40l-149 -147zM264 698q0 -184 123 -304t299 -120q177 0 295.5 121.5t118.5 300.5q0 96 -35.5 176.5 t-94 133t-131.5 81.5t-151 29q-126 0 -224 -59t-149 -153.5t-51 -205.5z" />
<glyph unicode="&#xa5;" horiz-adv-x="724" d="M29 1448h106l234 -684l241 684h97l-224 -612h176v-88h-208l-31 -89v-34h239v-88h-247v-537h-99v537h-247v88h239v34l-31 89h-208v88h178z" />
<glyph unicode="&#xa6;" horiz-adv-x="468" d="M190 -358v716h91v-716h-91zM190 666v716h91v-716h-91z" />
<glyph unicode="&#xa7;" horiz-adv-x="768" d="M92 125v108h92q0 -188 6 -219q8 -36 28.5 -62t42 -38t50.5 -18.5t41.5 -7.5t26.5 -1q42 0 74.5 9t53.5 21.5t35.5 33.5t21.5 38t11 42.5t4.5 39t0.5 35.5q0 26 -1.5 44t-2 34.5t-7.5 30t-10.5 23.5t-18.5 22.5t-23 20.5t-33 23t-40.5 24t-52.5 30q-51 29 -77 44t-64.5 39 t-57 40t-42 40t-33.5 46t-17.5 50.5t-7.5 60.5q0 139 129 231q-25 20 -39 34t-32.5 42t-27.5 69t-9 95q0 75 16 131.5t42 90.5t64.5 55t78.5 28.5t89 7.5q55 0 98.5 -11t71 -26.5t47 -40.5t29 -45t15 -47t6 -40t0.5 -31v-166h-90v149q0 25 -1.5 41t-10.5 43.5t-26.5 44 t-53.5 30t-87 13.5q-111 0 -153.5 -57t-42.5 -170q0 -40 10 -71.5t23.5 -53t46.5 -46t57 -39t78 -44.5q47 -26 68.5 -38t56 -33t50 -33.5t38 -32.5t32 -36.5t20 -39t14 -47.5t3.5 -55q0 -53 -18 -104t-34.5 -76t-45.5 -62q45 -46 56.5 -95t11.5 -137q0 -112 -37 -178 q-71 -123 -252 -123q-60 0 -107.5 12.5t-77.5 30t-51.5 48t-32 54.5t-16 62t-6 58t-0.5 55zM180 692q0 -57 29.5 -96.5t109.5 -89.5q23 -14 236 -133q17 21 27 36.5t20 51.5t10 80q0 78 -28 123t-80 77q-14 9 -111.5 65t-116.5 68q-96 -63 -96 -182z" />
<glyph unicode="&#xa8;" horiz-adv-x="468" d="M84 1198v158h98v-158h-98zM287 1198v158h98v-158h-98z" />
<glyph unicode="&#xa9;" horiz-adv-x="1705" d="M125 725q0 151 57 286t155 231.5t233 153t286 56.5q148 0 281.5 -55.5t231 -151.5t155 -233t57.5 -293q0 -194 -94 -360t-262 -265.5t-371 -99.5q-113 0 -221 33.5t-199.5 98.5t-161 153t-108.5 203t-39 243zM190 725q0 -140 53.5 -264.5t143.5 -212t212 -138.5t255 -51 q138 0 262 53t211 142t138 211t51 256q0 183 -85.5 335.5t-237.5 241t-337 88.5t-338.5 -90t-240.5 -241.5t-87 -329.5zM401 723q0 103 38 192t101.5 149.5t148 95t177.5 34.5q62 0 119 -15.5t94 -35t74.5 -51t52.5 -48.5t37 -43l-67 -61q-24 28 -35.5 40.5t-44 40.5 t-60.5 42.5t-73 27.5t-93 13q-152 0 -263 -107.5t-111 -271.5q0 -159 110 -267t260 -108q61 0 112.5 15t90.5 44.5t59.5 49.5t47.5 53l67 -55q-67 -92 -166.5 -144.5t-210.5 -52.5q-124 0 -230.5 58.5t-170.5 165.5t-64 239z" />
<glyph unicode="&#xaa;" horiz-adv-x="382" d="M33 1004q0 40 10.5 72t31 52.5t32 29.5t30.5 20q109 61 123 71q0 99 -10 121q-14 29 -57 29q-20 0 -34 -7.5t-21 -16t-11 -30.5t-4.5 -35t-1.5 -46h-64q0 29 0.5 44.5t4 43t12.5 43t24 32.5t40 25t59 8q37 0 63.5 -11.5t39.5 -26t19.5 -39.5t7.5 -39.5t1 -38.5v-361 q0 -14 6.5 -18t25.5 -6v-58q-34 -3 -56.5 3t-28.5 12.5t-15 19.5q-61 -37 -104 -37q-55 0 -89 40.5t-34 103.5zM102 1006q0 -38 20 -60t48 -22q43 0 90 47v200q-43 -22 -61 -31.5t-42.5 -26t-32.5 -29.5t-15 -32.5t-7 -45.5z" />
<glyph unicode="&#xab;" horiz-adv-x="768" d="M55 600l256 205h125l-258 -203l250 -207h-123zM344 600l256 205h121l-250 -205l240 -205h-115z" />
<glyph unicode="&#xac;" horiz-adv-x="1366" d="M0 551v92h1366v-641h-90v549h-1276z" />
<glyph unicode="&#xad;" horiz-adv-x="512" d="M76 555v88h362v-88h-362z" />
<glyph unicode="&#xae;" horiz-adv-x="1705" d="M125 723q0 154 59 290.5t157.5 232t232 151t278.5 55.5q151 0 286.5 -56.5t233 -153.5t154.5 -233.5t57 -289.5q0 -144 -55.5 -276.5t-151 -231.5t-233 -158t-291.5 -59q-141 0 -273 54t-232.5 148t-161 231.5t-60.5 295.5zM190 723q0 -184 90 -337t242.5 -240t331.5 -87 q186 0 339.5 91t239 242t85.5 327q0 137 -51 260.5t-139 212.5t-212 141.5t-264 52.5q-133 0 -255 -51.5t-211.5 -139.5t-142.5 -211.5t-53 -260.5zM578 274v902h262q64 0 91.5 -1t59.5 -6t58 -16q59 -23 94 -76t35 -119q0 -85 -56 -146.5t-159 -74.5q45 -14 76 -37t47 -54 t22.5 -56.5t11.5 -61.5q16 -110 27 -155t37 -99h-119q-14 34 -23 62q-3 16 -17.5 106t-16.5 103q-7 30 -15.5 53.5t-24 40.5t-28 28.5t-38 19t-42.5 12t-53 6t-58 2t-69 0.5v-433h-102zM682 791h170q23 0 37.5 1t45 4.5t51 13.5t42.5 26t33.5 44.5t11.5 65.5q0 44 -21 80 t-61 53q-26 11 -59 14t-107 3h-143v-305z" />
<glyph unicode="&#xaf;" horiz-adv-x="468" d="M41 1198v86h385v-86h-385z" />
<glyph unicode="&#xb0;" horiz-adv-x="724" d="M72 1233q0 121 85 206t205 85q121 0 206 -85.5t85 -205.5t-85 -205.5t-206 -85.5q-120 0 -205 85.5t-85 205.5zM164 1233q0 -84 58 -142.5t140 -58.5t141.5 58.5t59.5 142.5q0 83 -59 141t-142 58q-82 0 -140 -58t-58 -141z" />
<glyph unicode="&#xb1;" horiz-adv-x="1024" d="M63 0v94h900v-94h-900zM63 696v92h406v404h94v-404h400v-92h-400v-403h-94v403h-406z" />
<glyph unicode="&#xb2;" horiz-adv-x="468" d="M51 543q0 80 8 98q19 43 33 67t68 99q48 69 67.5 98t44.5 72t32.5 72t13.5 68.5t6 90.5q0 26 -0.5 39.5t-2.5 37.5t-8 37.5t-15 28t-25 21t-37 6.5q-91 0 -91 -123v-110h-73v110q0 199 164 199q34 0 60.5 -9t43.5 -22t29 -34.5t17.5 -38t8.5 -40.5t3.5 -35.5t0.5 -29.5 q0 -87 -3.5 -130t-23.5 -99.5t-51.5 -105.5t-99.5 -146q-36 -50 -54 -78.5t-23.5 -40t-12.5 -31.5h268v-71h-348z" />
<glyph unicode="&#xb3;" horiz-adv-x="468" d="M47.5 766q-1.5 34 1.5 65h74l1.5 -66t4 -54t10.5 -47.5t19 -32t30.5 -23t44.5 -6.5q111 0 111 150q0 88 -1 109.5t-7 39.5q-7 23 -23.5 40t-33 25.5t-42 14t-39.5 6.5t-36 2v76q99 4 132.5 40.5t33.5 106.5q0 37 -0.5 53t-3 40t-7.5 34t-14.5 21t-24.5 14.5t-36 3.5 q-28 0 -46 -9.5t-25 -27t-9 -31t-2 -34.5l-4 -102h-74q2 111 3.5 137t8.5 49q15 44 54.5 68t95.5 24q38 0 67 -9t45.5 -27.5t27 -35.5t14 -43.5t4.5 -40t1 -36.5q0 -35 -0.5 -52.5t-3.5 -45t-9.5 -42.5t-18 -34t-30 -32t-44.5 -24q34 -12 57.5 -30.5t36.5 -36t19.5 -43.5 t8 -45.5t1.5 -49.5v-45.5t-2 -44.5t-5 -46t-9 -41.5t-15.5 -39t-23.5 -31.5t-32 -26t-42.5 -15t-54.5 -6q-47 0 -82.5 14t-54.5 37t-32 53.5t-15.5 64t-4 67.5z" />
<glyph unicode="&#xb4;" horiz-adv-x="468" d="M51 1161l172 223h195l-293 -223h-74z" />
<glyph unicode="&#xb5;" horiz-adv-x="681" d="M102 -334v1366h86v-776q0 -186 136 -186q30 0 55 10t40.5 23t29.5 34t20 34t14 32v829h88v-1032h-88v98q-39 -50 -78.5 -76t-91.5 -26q-35 0 -59.5 8.5t-36 18t-29.5 30.5v-387h-86z" />
<glyph unicode="&#xb6;" horiz-adv-x="1366" d="M190 1057q0 174 119 286q58 52 137 77.5t201 25.5h432v-76h-67v-1712h-80v1712h-336v-1712h-80v1034q-44 5 -71 11t-69.5 27t-80.5 56q-105 102 -105 271z" />
<glyph unicode="&#xb7;" horiz-adv-x="299" d="M102 500v184h91v-184h-91z" />
<glyph unicode="&#xb8;" horiz-adv-x="468" d="M68 -264l38 45q76 -39 113 -39q35 0 54.5 20t19.5 45q0 69 -113 87l8 159h70l-8 -102q147 -47 149 -150q0 -48 -36.5 -88.5t-108.5 -40.5q-35 0 -72 11.5t-55.5 20.5t-58.5 32z" />
<glyph unicode="&#xb9;" horiz-adv-x="468" d="M88 1249v72q62 16 92.5 42t48.5 85h70v-905h-80v762q-20 -15 -30.5 -22t-38.5 -17.5t-62 -16.5z" />
<glyph unicode="&#xba;" horiz-adv-x="382" d="M45 1024v270q0 170 145 170q40 0 69.5 -14t43.5 -31.5t21.5 -43t8.5 -38.5t1 -28v-285q0 -22 -1 -37t-9 -42t-22.5 -43.5t-44.5 -30t-73 -13.5q-29 0 -51.5 7t-37 16.5t-24.5 25.5t-15 29t-7.5 32.5t-3 29.5t-0.5 26zM109 1024q0 -15 0.5 -23t4.5 -25t11 -26.5t23 -17.5 t38 -8q23 0 39 7t24 16t12 25.5t4.5 26t0.5 25.5v270q0 19 -0.5 29t-4.5 27t-11.5 26t-23.5 16t-38 7q-28 0 -45.5 -10.5t-24 -30.5t-8 -32t-1.5 -32v-270z" />
<glyph unicode="&#xbb;" horiz-adv-x="768" d="M41 391l254 207l-238 203h113l250 -203l-254 -207h-125zM326 391l264 205l-250 205h125l248 -203l-258 -207h-129z" />
<glyph unicode="&#xbc;" horiz-adv-x="1193" d="M88 1249v72q62 16 92.5 42t48.5 85h70v-905h-80v762q-20 -15 -30.5 -22t-38.5 -17.5t-62 -16.5zM188 -121l750 1729q1 0 22 -9.5t31 -13.5l-753 -1728q-42 18 -50 22zM762 268v88l229 547h96v-561h107v-74h-107v-268h-75v268h-250zM827 342h185v453z" />
<glyph unicode="&#xbd;" horiz-adv-x="1193" d="M88 1249v74q62 16 92.5 41t48.5 84h70v-905h-80v762q-20 -15 -30.5 -22t-38.5 -17.5t-62 -16.5zM170 -119l750 1729q7 -3 26.5 -12.5t26.5 -12.5l-754 -1728q-1 1 -21 10t-28 14zM776 0q0 80 8 98q19 43 33 67t68 99q59 84 82 119.5t46.5 85.5t29.5 91.5t6 105.5 q0 26 -0.5 39.5t-2.5 37.5t-8 37.5t-15 28t-25 21t-37 6.5q-91 0 -91 -123v-111h-73v111q0 198 164 198q34 0 60.5 -9t43.5 -22t29 -34.5t17.5 -38t8.5 -40.5t3.5 -35.5t0.5 -29.5q0 -87 -3.5 -130t-23.5 -99.5t-51.5 -105.5t-99.5 -146q-36 -51 -54 -79t-23.5 -39 t-12.5 -31h268v-72h-348z" />
<glyph unicode="&#xbe;" horiz-adv-x="1193" d="M47.5 766q-1.5 34 1.5 65h74l1.5 -66t4 -54t10.5 -47.5t19 -32t30.5 -23t44.5 -6.5q111 0 111 150q0 88 -1 109.5t-7 39.5q-7 23 -23.5 40t-33 25.5t-42 14t-39.5 6.5t-36 2v76q99 4 132.5 40.5t33.5 106.5q0 37 -0.5 53t-3 40t-7.5 34t-14.5 21t-24.5 14.5t-36 3.5 q-28 0 -46 -9.5t-25 -27t-9 -31t-2 -34.5l-4 -102h-74q2 111 3.5 137t8.5 49q15 44 54.5 68t95.5 24q38 0 67 -9t45.5 -27.5t27 -35.5t14 -43.5t4.5 -40t1 -36.5q0 -35 -0.5 -52.5t-3.5 -45t-9.5 -42.5t-18 -34t-30 -32t-44.5 -24q34 -12 57.5 -30.5t36.5 -36t19.5 -43.5 t8 -45.5t1.5 -49.5v-45.5t-2 -44.5t-5 -46t-9 -41.5t-15.5 -39t-23.5 -31.5t-32 -26t-42.5 -15t-54.5 -6q-47 0 -82.5 14t-54.5 37t-32 53.5t-15.5 64t-4 67.5zM229 -121l750 1731q32 -16 53 -25l-753 -1728q-8 4 -50 22zM760 268v88l231 547h96v-561h107v-74h-107v-268h-75 v268h-252zM827 342h185v453z" />
<glyph unicode="&#xbf;" horiz-adv-x="724" d="M74 389q0 65 5 108.5t22.5 85t32 66t52.5 80.5q67 98 81 127t14 76v160h96v-174q0 -57 -15.5 -91.5t-74.5 -121.5q-76 -109 -96.5 -158t-20.5 -139q0 -53 1.5 -88t6 -79.5t15.5 -73t28.5 -55t45.5 -39t65 -12.5q32 0 57 11.5t41 28t27 43.5t16.5 48t8 53.5t3 47.5t0.5 41 q0 20 -1 62t-1 63h95q1 -28 2 -59t1.5 -49.5t0.5 -35.5q0 -338 -254 -338q-87 0 -141.5 41.5t-80.5 100.5q-32 80 -32 270zM281 1262v184h96v-184h-96z" />
<glyph unicode="&#xc0;" horiz-adv-x="768" d="M49 0l264 1454h140l262 -1454h-107l-73 440h-304l-75 -440h-107zM121 1802h198l181 -221h-66zM248 535h268l-113 669q-2 9 -5 30.5t-7.5 53.5t-7.5 53q-8 -75 -16 -124z" />
<glyph unicode="&#xc1;" horiz-adv-x="768" d="M49 0l264 1454h140l262 -1454h-107l-73 440h-304l-75 -440h-107zM248 535h268l-113 669q-2 9 -5 30.5t-7.5 53.5t-7.5 53q-8 -75 -16 -124zM258 1575l172 223h193l-289 -223h-76z" />
<glyph unicode="&#xc2;" horiz-adv-x="768" d="M49 0l264 1454h140l262 -1454h-107l-73 440h-304l-75 -440h-107zM172 1575l160 223h102l150 -221h-82l-119 139l-125 -141h-86zM248 535h268l-113 669q-2 9 -5 30.5t-7.5 53.5t-7.5 53q-8 -75 -16 -124z" />
<glyph unicode="&#xc3;" horiz-adv-x="768" d="M49 0l264 1454h140l262 -1454h-107l-73 440h-304l-75 -440h-107zM160 1622q18 25 28.5 38.5t31 34t43.5 30.5t48 10q29 0 84 -19q45 -21 59.5 -25.5t28.5 -4.5q27 0 44 13t53 52q7 -7 32 -27q-20 -30 -29.5 -43.5t-26 -33.5t-29 -28t-30 -15t-36.5 -7q-13 0 -88.5 26 t-91.5 26q-20 0 -38 -9t-27.5 -19t-22.5 -26q-15 9 -33 27zM248 535h268l-113 669q-2 9 -5 30.5t-7.5 53.5t-7.5 53q-8 -75 -16 -124z" />
<glyph unicode="&#xc4;" horiz-adv-x="768" d="M49 0l264 1454h140l262 -1454h-107l-73 440h-304l-75 -440h-107zM178 1616v156h107v-156h-107zM248 535h268l-113 669q-2 9 -5 30.5t-7.5 53.5t-7.5 53q-8 -75 -16 -124zM481 1616v156h107v-156h-107z" />
<glyph unicode="&#xc5;" horiz-adv-x="768" d="M49 0l264 1454h140l262 -1454h-107l-73 440h-304l-75 -440h-107zM248 535h268l-113 669q-2 9 -5 30.5t-7.5 53.5t-7.5 53q-8 -75 -16 -124zM248 1667q0 55 40 95t95.5 40t95 -40t39.5 -95t-39.5 -95t-95.5 -40q-57 0 -96 39t-39 96zM293 1667q0 -37 26.5 -63.5 t63.5 -26.5t63.5 26.5t26.5 63.5t-26.5 63.5t-63.5 26.5t-63.5 -26.5t-26.5 -63.5z" />
<glyph unicode="&#xc6;" horiz-adv-x="1024" d="M45 0l369 1446h534v-88h-325v-559h299v-90h-299v-619h360v-90h-459v627h-221l-153 -627h-105zM324 711h200v647h-37z" />
<glyph unicode="&#xc7;" horiz-adv-x="768" d="M106 328v784q0 70 2.5 104.5t19.5 81t52 82.5q80 80 215 80q95 0 160 -41q113 -70 113 -237v-203h-101q0 180 -3 228t-21 81q-41 80 -148 80q-97 0 -143.5 -59.5t-46.5 -165.5v-715v-62t2 -57.5t5.5 -56t10 -49t16.5 -45t25.5 -35t35 -29t46.5 -16t60 -6.5q36 0 65 9.5 t47 22.5t31 33.5t19 37t9.5 38t4 31t0.5 22.5v232h102v-224q0 -44 -4.5 -78.5t-21 -75.5t-44.5 -69t-79.5 -48.5t-122.5 -25.5q0 -4 -1 -14t-1 -14q147 -43 147 -150q0 -46 -36 -86.5t-107 -40.5q-35 0 -72 11t-58.5 22t-56.5 31q30 36 39 45q72 -39 111 -39q35 0 54.5 19 t19.5 46q0 66 -111 84l4 89q-49 7 -88 25.5t-63.5 40t-42 55t-26 59t-13 63t-5 56.5t-0.5 49z" />
<glyph unicode="&#xc8;" horiz-adv-x="681" d="M80 1802h199l180 -221h-66zM121 0v1446h512v-90h-412v-557h338v-88h-340v-621h412v-90h-510z" />
<glyph unicode="&#xc9;" horiz-adv-x="681" d="M121 0v1446h512v-90h-412v-557h338v-88h-340v-621h412v-90h-510zM248 1575l172 223h192l-288 -223h-76z" />
<glyph unicode="&#xca;" horiz-adv-x="681" d="M121 0v1446h512v-90h-412v-557h338v-88h-340v-621h412v-90h-510zM152 1575l159 223h103l149 -221h-82l-119 139l-124 -141h-86z" />
<glyph unicode="&#xcb;" horiz-adv-x="681" d="M121 0v1446h512v-90h-412v-557h338v-88h-340v-621h412v-90h-510zM160 1616v156h106v-156h-106zM463 1616v156h106v-156h-106z" />
<glyph unicode="&#xcc;" horiz-adv-x="342" d="M-92 1802h198l181 -221h-66zM119 0v1446h104v-1446h-104z" />
<glyph unicode="&#xcd;" horiz-adv-x="342" d="M45 1575l172 223h193l-289 -223h-76zM119 0v1446h104v-1446h-104z" />
<glyph unicode="&#xce;" horiz-adv-x="342" d="M-41 1575l160 223h102l150 -221h-82l-119 139l-125 -141h-86zM119 0v1446h104v-1446h-104z" />
<glyph unicode="&#xcf;" horiz-adv-x="342" d="M-33 1616v156h107v-156h-107zM119 0v1446h104v-1446h-104zM270 1616v156h107v-156h-107z" />
<glyph unicode="&#xd0;" horiz-adv-x="811" d="M0 758v86h123v602h168q65 0 118 -11.5t92.5 -29t70.5 -49t51.5 -61.5t35 -76.5t22 -83.5t11.5 -93t5 -96t1 -100v-330q0 -57 -1.5 -93.5t-9.5 -96.5t-22.5 -99.5t-44.5 -86.5t-72 -74.5t-107 -46.5t-148 -19h-170v758h-123zM223 92q55 0 82.5 1t68 6t64.5 15.5t50.5 30.5 t48.5 50q63 89 63 319v342q0 129 -11.5 216.5t-20 110.5t-23.5 50q-21 35 -51 59t-56.5 36t-69.5 18t-69 7t-76 1v-510h226v-86h-226v-666z" />
<glyph unicode="&#xd1;" horiz-adv-x="811" d="M113 0v1446h147l350 -1403q-10 190 -10 348l-8 1055h98v-1446h-153l-342 1382q8 -221 8 -354l4 -1028h-94zM182 1622q17 24 28.5 38.5t32 34.5t43.5 30t48 10q29 0 84 -19q65 -30 88 -30q19 0 35 8.5t25 18t36 38.5q3 -3 33 -27q-32 -47 -49 -69t-44.5 -40t-58.5 -18 q-13 0 -88.5 26t-91.5 26q-45 0 -88 -54q-15 9 -33 27z" />
<glyph unicode="&#xd2;" horiz-adv-x="811" d="M113 309v815q0 153 51 226q77 112 248 112q162 0 233 -106q24 -35 36 -85t13.5 -83.5t1.5 -93.5v-797q0 -129 -47 -199q-31 -48 -93.5 -82t-154.5 -34q-47 0 -86 8.5t-67 22t-50 35t-36 41t-24 47.5t-14.5 47.5t-7 48.5t-3 42t-0.5 35zM143 1802h199l180 -221h-65z M209 348q0 -104 16.5 -156.5t61.5 -85.5q49 -34 119 -34q56 0 96 24q32 18 52.5 43.5t30 59t12.5 63.5t3 72v704q0 71 -2.5 112.5t-16 92t-40.5 78.5q-51 51 -135 51q-87 0 -138 -51q-59 -57 -59 -176v-797z" />
<glyph unicode="&#xd3;" horiz-adv-x="811" d="M113 309v815q0 153 51 226q77 112 248 112q162 0 233 -106q24 -35 36 -85t13.5 -83.5t1.5 -93.5v-797q0 -129 -47 -199q-31 -48 -93.5 -82t-154.5 -34q-47 0 -86 8.5t-67 22t-50 35t-36 41t-24 47.5t-14.5 47.5t-7 48.5t-3 42t-0.5 35zM209 348q0 -104 16.5 -156.5 t61.5 -85.5q49 -34 119 -34q56 0 96 24q32 18 52.5 43.5t30 59t12.5 63.5t3 72v704q0 71 -2.5 112.5t-16 92t-40.5 78.5q-51 51 -135 51q-87 0 -138 -51q-59 -57 -59 -176v-797zM281 1575l172 223h192l-289 -223h-75z" />
<glyph unicode="&#xd4;" horiz-adv-x="811" d="M113 309v815q0 153 51 226q77 112 248 112q162 0 233 -106q24 -35 36 -85t13.5 -83.5t1.5 -93.5v-797q0 -129 -47 -199q-31 -48 -93.5 -82t-154.5 -34q-47 0 -86 8.5t-67 22t-50 35t-36 41t-24 47.5t-14.5 47.5t-7 48.5t-3 42t-0.5 35zM195 1575l159 223h103l149 -221 h-82l-118 139l-125 -141h-86zM209 348q0 -104 16.5 -156.5t61.5 -85.5q49 -34 119 -34q56 0 96 24q32 18 52.5 43.5t30 59t12.5 63.5t3 72v704q0 71 -2.5 112.5t-16 92t-40.5 78.5q-51 51 -135 51q-87 0 -138 -51q-59 -57 -59 -176v-797z" />
<glyph unicode="&#xd5;" horiz-adv-x="811" d="M113 309v815q0 153 51 226q77 112 248 112q162 0 233 -106q24 -35 36 -85t13.5 -83.5t1.5 -93.5v-797q0 -129 -47 -199q-31 -48 -93.5 -82t-154.5 -34q-47 0 -86 8.5t-67 22t-50 35t-36 41t-24 47.5t-14.5 47.5t-7 48.5t-3 42t-0.5 35zM182 1622q17 24 28.5 38.5t32 34.5 t43.5 30t48 10q29 0 84 -19q65 -30 88 -30q19 0 35 8.5t25 18t36 38.5q3 -3 33 -27q-32 -47 -49 -69t-44.5 -40t-58.5 -18q-13 0 -88.5 26t-91.5 26q-45 0 -88 -54q-15 9 -33 27zM209 348q0 -104 16.5 -156.5t61.5 -85.5q49 -34 119 -34q56 0 96 24q32 18 52.5 43.5t30 59 t12.5 63.5t3 72v704q0 71 -2.5 112.5t-16 92t-40.5 78.5q-51 51 -135 51q-87 0 -138 -51q-59 -57 -59 -176v-797z" />
<glyph unicode="&#xd6;" horiz-adv-x="811" d="M113 309v815q0 153 51 226q77 112 248 112q162 0 233 -106q24 -35 36 -85t13.5 -83.5t1.5 -93.5v-797q0 -129 -47 -199q-31 -48 -93.5 -82t-154.5 -34q-47 0 -86 8.5t-67 22t-50 35t-36 41t-24 47.5t-14.5 47.5t-7 48.5t-3 42t-0.5 35zM199 1616v156h106v-156h-106z M209 348q0 -104 16.5 -156.5t61.5 -85.5q49 -34 119 -34q56 0 96 24q32 18 52.5 43.5t30 59t12.5 63.5t3 72v704q0 71 -2.5 112.5t-16 92t-40.5 78.5q-51 51 -135 51q-87 0 -138 -51q-59 -57 -59 -176v-797zM502 1616v156h106v-156h-106z" />
<glyph unicode="&#xd7;" horiz-adv-x="1024" d="M135 285l311 313l-311 313l64 64l313 -311l313 311l64 -64l-309 -313l309 -313l-64 -66l-313 316l-313 -316z" />
<glyph unicode="&#xd8;" horiz-adv-x="811" d="M72 -37l73 172q-34 74 -34 166v729q0 135 6 191.5t33 107.5q42 77 114 110.5t146 33.5q53 0 100 -17q43 -14 75.5 -39t43.5 -40.5t26 -41.5l58 133l55 -26l-82 -193q10 -58 10 -104v-830q0 -21 -0.5 -37.5t-6.5 -53.5t-16 -65t-32.5 -62.5t-52.5 -57.5t-79 -39t-110 -16 q-48 0 -84.5 8t-63.5 25.5t-38 27t-31 31.5l-57 -137q-9 5 -53 24zM209 283l385 907q-12 88 -45 129q-51 63 -146 63q-91 0 -143 -65q-24 -27 -36 -67.5t-13.5 -66.5t-1.5 -69v-831zM229 188q36 -112 174 -112q110 0 152.5 66.5t42.5 189.5v708z" />
<glyph unicode="&#xd9;" horiz-adv-x="811" d="M117 342v1106h98v-1122q0 -26 0.5 -40.5t2.5 -41.5t7.5 -43.5t14 -39.5t23 -37t34 -27.5t48 -20t63.5 -6.5q102 0 149 69q23 30 29 76.5t6 169.5v1063h100v-1159q0 -21 -0.5 -36.5t-6.5 -51t-16 -61.5t-31.5 -59t-51.5 -54.5t-77.5 -36.5t-107.5 -15q-111 0 -184 56 q-36 27 -57.5 61.5t-30 81.5t-10.5 78t-2 90zM143 1802h199l180 -221h-65z" />
<glyph unicode="&#xda;" horiz-adv-x="811" d="M117 342v1106h98v-1122q0 -26 0.5 -40.5t2.5 -41.5t7.5 -43.5t14 -39.5t23 -37t34 -27.5t48 -20t63.5 -6.5q102 0 149 69q23 30 29 76.5t6 169.5v1063h100v-1159q0 -21 -0.5 -36.5t-6.5 -51t-16 -61.5t-31.5 -59t-51.5 -54.5t-77.5 -36.5t-107.5 -15q-111 0 -184 56 q-36 27 -57.5 61.5t-30 81.5t-10.5 78t-2 90zM281 1575l172 223h192l-289 -223h-75z" />
<glyph unicode="&#xdb;" horiz-adv-x="811" d="M117 342v1106h98v-1122q0 -26 0.5 -40.5t2.5 -41.5t7.5 -43.5t14 -39.5t23 -37t34 -27.5t48 -20t63.5 -6.5q102 0 149 69q23 30 29 76.5t6 169.5v1063h100v-1159q0 -21 -0.5 -36.5t-6.5 -51t-16 -61.5t-31.5 -59t-51.5 -54.5t-77.5 -36.5t-107.5 -15q-111 0 -184 56 q-36 27 -57.5 61.5t-30 81.5t-10.5 78t-2 90zM195 1575l159 223h103l149 -221h-82l-118 139l-125 -141h-86z" />
<glyph unicode="&#xdc;" horiz-adv-x="811" d="M117 342v1106h98v-1122q0 -26 0.5 -40.5t2.5 -41.5t7.5 -43.5t14 -39.5t23 -37t34 -27.5t48 -20t63.5 -6.5q102 0 149 69q23 30 29 76.5t6 169.5v1063h100v-1159q0 -21 -0.5 -36.5t-6.5 -51t-16 -61.5t-31.5 -59t-51.5 -54.5t-77.5 -36.5t-107.5 -15q-111 0 -184 56 q-36 27 -57.5 61.5t-30 81.5t-10.5 78t-2 90zM199 1616v156h106v-156h-106zM502 1616v156h106v-156h-106z" />
<glyph unicode="&#xdd;" horiz-adv-x="724" d="M29 1446h106l230 -680l231 680h111l-295 -807v-639h-99v639zM238 1575l172 223h192l-289 -223h-75z" />
<glyph unicode="&#xde;" horiz-adv-x="768" d="M117 0v1448h100v-242h125q113 0 179.5 -15.5t109.5 -70.5q24 -29 36 -72t13.5 -74.5t1.5 -90.5v-162q0 -23 -0.5 -36.5t-3 -41t-8 -45t-16.5 -43.5t-26 -43.5t-39.5 -36.5t-55 -30.5t-73 -19t-93.5 -7.5h-148v-418h-102zM217 504h162q56 0 96 14.5t60.5 34t32 52t14 57 t2.5 59.5v123q0 72 -4.5 115t-16.5 77.5t-37 51t-61 24.5t-94 8h-154v-616z" />
<glyph unicode="&#xdf;" horiz-adv-x="724" d="M111 0v1182q0 47 4.5 82.5t20 74.5t43 64.5t76.5 42t116 16.5q114 0 174 -65q47 -54 47 -144v-163q0 -43 -10 -76.5t-23 -52.5t-36 -34.5t-37.5 -21.5t-39.5 -14q109 -41 145 -96t36 -172v-453q0 -93 -45 -139.5t-131 -46.5q-146 0 -146 141v162h62v-133 q0 -49 24.5 -68.5t57.5 -19.5q25 0 43 10.5t27 24t13.5 33t5.5 30t1 22.5v377q0 40 -1 65.5t-5.5 56.5t-13.5 50t-24 40t-38 32.5t-55.5 20.5t-75.5 12v88q58 2 95.5 18t54.5 45t22.5 57.5t5.5 69.5q0 153 -6 176q-24 86 -136 86q-34 0 -60.5 -7.5t-43.5 -18t-29 -30 t-17.5 -34.5t-8.5 -42t-3.5 -41t-0.5 -42v-1165h-88z" />
<glyph unicode="&#xe0;" d="M57 242q0 57 14.5 104.5t34.5 78.5t54 60t59.5 44t65.5 36l1 1h1l1 1h1l1 1h1l1 1h1l1 1l1 1h1l1 1h1l1 1h2l1 1h1l1 1h1q97 52 134 79q8 6 18 14v118q0 41 -3.5 66.5t-16 51t-40 38t-71.5 12.5q-33 0 -57.5 -7.5t-39.5 -25.5t-23.5 -35t-12 -50.5t-4.5 -56t-1 -66.5h-88 q0 35 0.5 53t2.5 51t6 50.5t12 44.5t19.5 42t29.5 33t41 27t54.5 15.5t70.5 6.5q43 0 77 -9.5t55.5 -23.5t37 -36.5t23 -40t11.5 -43.5t4.5 -39t0.5 -33v-692q0 -24 15.5 -30.5t45.5 -6.5v-82q-71 0 -102.5 15.5t-44.5 64.5q-31 -24 -51.5 -37.5t-62 -28t-85.5 -14.5 q-102 0 -152.5 69t-50.5 173zM82 1389h199l178 -224h-68zM145 240q0 -68 33 -113t101 -45q42 0 79 17t55 33.5t46 47.5v391q-24 -16 -123 -71q-41 -23 -61 -35.5t-50 -37t-44 -47.5t-25 -59.5t-11 -80.5z" />
<glyph unicode="&#xe1;" d="M57 242q0 57 14.5 104.5t34.5 78.5t54 60t59.5 44t65.5 36l1 1h1l1 1h1l1 1h1l1 1h1l1 1l1 1h1l1 1h1l1 1h2l1 1h1l1 1h1q97 52 134 79q8 6 18 14v118q0 41 -3.5 66.5t-16 51t-40 38t-71.5 12.5q-33 0 -57.5 -7.5t-39.5 -25.5t-23.5 -35t-12 -50.5t-4.5 -56t-1 -66.5h-88 q0 35 0.5 53t2.5 51t6 50.5t12 44.5t19.5 42t29.5 33t41 27t54.5 15.5t70.5 6.5q43 0 77 -9.5t55.5 -23.5t37 -36.5t23 -40t11.5 -43.5t4.5 -39t0.5 -33v-692q0 -24 15.5 -30.5t45.5 -6.5v-82q-71 0 -102.5 15.5t-44.5 64.5q-31 -24 -51.5 -37.5t-62 -28t-85.5 -14.5 q-102 0 -152.5 69t-50.5 173zM145 240q0 -68 33 -113t101 -45q42 0 79 17t55 33.5t46 47.5v391q-24 -16 -123 -71q-41 -23 -61 -35.5t-50 -37t-44 -47.5t-25 -59.5t-11 -80.5zM215 1161l172 223h195l-293 -223h-74z" />
<glyph unicode="&#xe2;" d="M57 242q0 57 14.5 104.5t34.5 78.5t54 60t59.5 44t65.5 36l1 1h1l1 1h1l1 1h1l1 1h1l1 1l1 1h1l1 1h1l1 1h2l1 1h1l1 1h1q97 52 134 79q8 6 18 14v118q0 41 -3.5 66.5t-16 51t-40 38t-71.5 12.5q-33 0 -57.5 -7.5t-39.5 -25.5t-23.5 -35t-12 -50.5t-4.5 -56t-1 -66.5h-88 q0 35 0.5 53t2.5 51t6 50.5t12 44.5t19.5 42t29.5 33t41 27t54.5 15.5t70.5 6.5q43 0 77 -9.5t55.5 -23.5t37 -36.5t23 -40t11.5 -43.5t4.5 -39t0.5 -33v-692q0 -24 15.5 -30.5t45.5 -6.5v-82q-71 0 -102.5 15.5t-44.5 64.5q-31 -24 -51.5 -37.5t-62 -28t-85.5 -14.5 q-102 0 -152.5 69t-50.5 173zM133 1165l158 221h102l148 -221h-80l-119 140l-125 -140h-84zM145 240q0 -68 33 -113t101 -45q42 0 79 17t55 33.5t46 47.5v391q-24 -16 -123 -71q-41 -23 -61 -35.5t-50 -37t-44 -47.5t-25 -59.5t-11 -80.5z" />
<glyph unicode="&#xe3;" d="M57 242q0 57 14.5 104.5t34.5 78.5t54 60t59.5 44t65.5 36l1 1h1l1 1h1l1 1h1l1 1h1l1 1l1 1h1l1 1h1l1 1h2l1 1h1l1 1h1q97 52 134 79q8 6 18 14v118q0 41 -3.5 66.5t-16 51t-40 38t-71.5 12.5q-33 0 -57.5 -7.5t-39.5 -25.5t-23.5 -35t-12 -50.5t-4.5 -56t-1 -66.5h-88 q0 35 0.5 53t2.5 51t6 50.5t12 44.5t19.5 42t29.5 33t41 27t54.5 15.5t70.5 6.5q43 0 77 -9.5t55.5 -23.5t37 -36.5t23 -40t11.5 -43.5t4.5 -39t0.5 -33v-692q0 -24 15.5 -30.5t45.5 -6.5v-82q-71 0 -102.5 15.5t-44.5 64.5q-31 -24 -51.5 -37.5t-62 -28t-85.5 -14.5 q-102 0 -152.5 69t-50.5 173zM119 1210q19 27 28.5 39t30 33.5t43.5 31t49 9.5q33 0 82 -18q67 -31 90 -31q26 0 44 13.5t51 51.5q30 -24 32 -26q-44 -68 -75 -97.5t-76 -29.5q-13 0 -87.5 25.5t-90.5 25.5q-46 0 -88 -53q-18 10 -33 26zM145 240q0 -68 33 -113t101 -45 q42 0 79 17t55 33.5t46 47.5v391q-24 -16 -123 -71q-41 -23 -61 -35.5t-50 -37t-44 -47.5t-25 -59.5t-11 -80.5z" />
<glyph unicode="&#xe4;" d="M57 242q0 57 14.5 104.5t34.5 78.5t54 60t59.5 44t65.5 36l1 1h1l1 1h1l1 1h1l1 1h1l1 1l1 1h1l1 1h1l1 1h2l1 1h1l1 1h1q97 52 134 79q8 6 18 14v118q0 41 -3.5 66.5t-16 51t-40 38t-71.5 12.5q-33 0 -57.5 -7.5t-39.5 -25.5t-23.5 -35t-12 -50.5t-4.5 -56t-1 -66.5h-88 q0 35 0.5 53t2.5 51t6 50.5t12 44.5t19.5 42t29.5 33t41 27t54.5 15.5t70.5 6.5q43 0 77 -9.5t55.5 -23.5t37 -36.5t23 -40t11.5 -43.5t4.5 -39t0.5 -33v-692q0 -24 15.5 -30.5t45.5 -6.5v-82q-71 0 -102.5 15.5t-44.5 64.5q-31 -24 -51.5 -37.5t-62 -28t-85.5 -14.5 q-102 0 -152.5 69t-50.5 173zM145 240q0 -68 33 -113t101 -45q42 0 79 17t55 33.5t46 47.5v391q-24 -16 -123 -71q-41 -23 -61 -35.5t-50 -37t-44 -47.5t-25 -59.5t-11 -80.5zM186 1198v158h99v-158h-99zM389 1198v158h98v-158h-98z" />
<glyph unicode="&#xe5;" d="M57 242q0 57 14.5 104.5t34.5 78.5t54 60t59.5 44t65.5 36l1 1h1l1 1h1l1 1h1l1 1h1l1 1l1 1h1l1 1h1l1 1h2l1 1h1l1 1h1q97 52 134 79q8 6 18 14v118q0 41 -3.5 66.5t-16 51t-40 38t-71.5 12.5q-33 0 -57.5 -7.5t-39.5 -25.5t-23.5 -35t-12 -50.5t-4.5 -56t-1 -66.5h-88 q0 35 0.5 53t2.5 51t6 50.5t12 44.5t19.5 42t29.5 33t41 27t54.5 15.5t70.5 6.5q43 0 77 -9.5t55.5 -23.5t37 -36.5t23 -40t11.5 -43.5t4.5 -39t0.5 -33v-692q0 -24 15.5 -30.5t45.5 -6.5v-82q-71 0 -102.5 15.5t-44.5 64.5q-31 -24 -51.5 -37.5t-62 -28t-85.5 -14.5 q-102 0 -152.5 69t-50.5 173zM145 240q0 -68 33 -113t101 -45q42 0 79 17t55 33.5t46 47.5v391q-24 -16 -123 -71q-41 -23 -61 -35.5t-50 -37t-44 -47.5t-25 -59.5t-11 -80.5zM203 1260q0 57 39.5 97t95.5 40t95.5 -40t39.5 -97q0 -56 -40 -96t-95 -40q-57 0 -96 39t-39 97z M248 1260q0 -36 27 -63.5t63 -27.5t63 27.5t27 63.5q0 37 -26.5 64.5t-63.5 27.5t-63.5 -27.5t-26.5 -64.5z" />
<glyph unicode="&#xe6;" horiz-adv-x="1024" d="M61 240q0 118 52.5 189t162.5 126q97 50 189 109v159q0 64 -29 95q-32 34 -98 34q-65 0 -102 -37q-18 -20 -27 -52.5t-10.5 -60t-1.5 -85.5h-88q0 72 2 107t16 78.5t43 72.5q57 57 172 57q121 0 182 -82q67 84 187 84q48 0 85.5 -11.5t61.5 -27.5t41 -43.5t25 -49 t12.5 -56t5 -52.5t0.5 -49v-219h-389v-213q0 -89 12 -129q18 -57 58 -81.5t82 -24.5q73 0 116 51q25 31 30 66t5 159h88q0 -121 -8 -178q-18 -89 -82.5 -134.5t-142.5 -45.5q-47 0 -82.5 9.5t-60.5 30t-40 39t-34 48.5q-91 -127 -222 -127q-79 0 -131 43q-80 62 -80 201z M147 242q0 -80 39 -125q36 -39 105 -39q32 0 59 9.5t43 20t33 33t22.5 32.5t18.5 34v371q-35 -29 -141 -86q-27 -14 -43.5 -24t-45.5 -33t-46 -47t-30.5 -63t-13.5 -83zM553 600h303v180q0 90 -39 131q-38 41 -110 41q-76 0 -119 -51q-20 -26 -27.5 -61t-7.5 -97v-143z" />
<glyph unicode="&#xe7;" d="M82 295v475q0 19 0.5 32t5 42.5t12.5 51t26 48.5t42 44.5t63 29.5t88 12q19 0 36 -1.5t31.5 -5t26.5 -7.5t22.5 -9.5t18.5 -9.5t15.5 -10t11.5 -9t9 -7.5t6 -5.5q41 -48 50 -106t9 -195h-86q0 94 -1.5 124.5t-10.5 59.5q-14 49 -48.5 77.5t-86.5 28.5q-36 0 -64 -11 t-43.5 -31t-25.5 -38.5t-13.5 -44t-4.5 -37.5t-1 -28v-442q0 -32 0.5 -49t3.5 -47t8.5 -47.5t17.5 -39.5t29 -34t43 -20.5t60 -8.5q143 0 143 168v149h90v-133q0 -24 -0.5 -39t-4.5 -43.5t-11.5 -47.5t-23.5 -44t-38 -41t-57.5 -30t-79.5 -19q-4 -24 -4 -45 q148 -47 148 -150q0 -48 -36.5 -88.5t-107.5 -40.5q-35 0 -71.5 11t-58 21.5t-56.5 31.5q30 36 39 45q72 -39 110 -39q35 0 54.5 20t19.5 45q0 69 -111 87l7 102q-42 6 -74.5 21.5t-53.5 33t-35.5 45.5t-21.5 49.5t-11 54t-4.5 49.5t-0.5 46z" />
<glyph unicode="&#xe8;" d="M59 1389h199l178 -224h-67zM88 250v538q0 118 60.5 183t170.5 65q44 0 79.5 -8t59.5 -25t42 -35t29 -46.5t17.5 -49.5t9 -55.5t3 -52.5t0.5 -51v-207h-385v-254q0 -174 152 -174q102 0 133 86q10 26 12 52.5t2 139.5h86v-114q0 -117 -61.5 -180.5t-175.5 -63.5 q-100 0 -162 57q-41 35 -56.5 80.5t-15.5 114.5zM174 578h297v190q0 18 -1 33t-8.5 47t-22 53.5t-44.5 39t-71 17.5q-150 0 -150 -198v-182z" />
<glyph unicode="&#xe9;" d="M88 250v538q0 118 60.5 183t170.5 65q44 0 79.5 -8t59.5 -25t42 -35t29 -46.5t17.5 -49.5t9 -55.5t3 -52.5t0.5 -51v-207h-385v-254q0 -174 152 -174q102 0 133 86q10 26 12 52.5t2 139.5h86v-114q0 -117 -61.5 -180.5t-175.5 -63.5q-100 0 -162 57q-41 35 -56.5 80.5 t-15.5 114.5zM174 578h297v190q0 18 -1 33t-8.5 47t-22 53.5t-44.5 39t-71 17.5q-150 0 -150 -198v-182zM193 1161l172 223h194l-293 -223h-73z" />
<glyph unicode="&#xea;" d="M88 250v538q0 118 60.5 183t170.5 65q44 0 79.5 -8t59.5 -25t42 -35t29 -46.5t17.5 -49.5t9 -55.5t3 -52.5t0.5 -51v-207h-385v-254q0 -174 152 -174q102 0 133 86q10 26 12 52.5t2 139.5h86v-114q0 -117 -61.5 -180.5t-175.5 -63.5q-100 0 -162 57q-41 35 -56.5 80.5 t-15.5 114.5zM111 1165l157 221h103l147 -221h-80l-119 140l-124 -140h-84zM174 578h297v190q0 18 -1 33t-8.5 47t-22 53.5t-44.5 39t-71 17.5q-150 0 -150 -198v-182z" />
<glyph unicode="&#xeb;" d="M88 250v538q0 118 60.5 183t170.5 65q44 0 79.5 -8t59.5 -25t42 -35t29 -46.5t17.5 -49.5t9 -55.5t3 -52.5t0.5 -51v-207h-385v-254q0 -174 152 -174q102 0 133 86q10 26 12 52.5t2 139.5h86v-114q0 -117 -61.5 -180.5t-175.5 -63.5q-100 0 -162 57q-41 35 -56.5 80.5 t-15.5 114.5zM164 1198v158h98v-158h-98zM174 578h297v190q0 18 -1 33t-8.5 47t-22 53.5t-44.5 39t-71 17.5q-150 0 -150 -198v-182zM367 1198v158h98v-158h-98z" />
<glyph unicode="&#xec;" horiz-adv-x="299" d="M-111 1389h199l178 -224h-67zM106 0v1032h89v-1032h-89z" />
<glyph unicode="&#xed;" horiz-adv-x="299" d="M23 1161l172 223h194l-293 -223h-73zM106 0v1032h89v-1032h-89z" />
<glyph unicode="&#xee;" horiz-adv-x="299" d="M-59 1165l157 221h103l147 -221h-80l-118 140l-125 -140h-84zM106 0v1032h89v-1032h-89z" />
<glyph unicode="&#xef;" horiz-adv-x="299" d="M-6 1198v158h98v-158h-98zM106 0v1032h89v-1032h-89zM197 1198v158h98v-158h-98z" />
<glyph unicode="&#xf0;" d="M80 248v540q0 51 13 92t31.5 66t45.5 43.5t49 27t47 13.5t35 5.5t18 0.5q41 0 73.5 -14t48 -28.5t36.5 -41.5q-5 61 -9.5 92.5t-22 81t-48.5 99.5l-211 -80l-28 63l196 76q-63 75 -141 135l72 37q52 -44 77.5 -70.5t65.5 -72.5l133 49l27 -66l-117 -43q21 -37 32 -60.5 t27.5 -77.5t24.5 -133.5t8 -186.5l-2 -502q0 -70 -8.5 -115.5t-34.5 -85.5q-33 -46 -86.5 -71t-114.5 -25q-78 0 -137 35q-60 34 -80 86.5t-20 130.5zM168 250q0 -170 147 -170q71 0 114.5 41.5t43.5 136.5v514q0 178 -145 178q-46 0 -78 -15.5t-47.5 -35.5t-24 -52.5 t-9.5 -51t-1 -47.5v-498z" />
<glyph unicode="&#xf1;" horiz-adv-x="681" d="M113 0v1032h86v-100q28 49 71 78q53 32 119 32q59 0 107 -26q88 -51 88 -189v-827h-86v825q0 74 -38 108t-89 34q-80 0 -135 -62q-24 -30 -37 -67v-838h-86zM119 1210q19 27 28.5 39t30 33.5t43.5 31t49 9.5q33 0 82 -18q67 -31 90 -31q26 0 44 13.5t51 51.5 q30 -24 32 -26q-44 -68 -75 -97.5t-76 -29.5q-13 0 -87.5 25.5t-90.5 25.5q-46 0 -88 -53q-18 10 -33 26z" />
<glyph unicode="&#xf2;" d="M59 1389h199l178 -224h-67zM80 248v540q0 59 17 105t42.5 72t60.5 43t65 22.5t61 5.5q49 0 87.5 -11.5t62.5 -27.5t41.5 -42t25.5 -46t12.5 -49.5t5 -43t0.5 -34.5v-489q0 -69 -9 -115t-36 -86q-66 -96 -199 -96q-78 0 -137 35q-60 34 -80 86.5t-20 130.5zM168 250 q0 -170 147 -170q70 0 114 42t44 136v514q0 178 -145 178q-46 0 -78 -15.5t-47.5 -35t-24 -52t-9.5 -51t-1 -48.5v-498z" />
<glyph unicode="&#xf3;" d="M80 248v540q0 59 17 105t42.5 72t60.5 43t65 22.5t61 5.5q49 0 87.5 -11.5t62.5 -27.5t41.5 -42t25.5 -46t12.5 -49.5t5 -43t0.5 -34.5v-489q0 -69 -9 -115t-36 -86q-66 -96 -199 -96q-78 0 -137 35q-60 34 -80 86.5t-20 130.5zM168 250q0 -170 147 -170q70 0 114 42 t44 136v514q0 178 -145 178q-46 0 -78 -15.5t-47.5 -35t-24 -52t-9.5 -51t-1 -48.5v-498zM193 1161l172 223h194l-293 -223h-73z" />
<glyph unicode="&#xf4;" d="M80 248v540q0 59 17 105t42.5 72t60.5 43t65 22.5t61 5.5q49 0 87.5 -11.5t62.5 -27.5t41.5 -42t25.5 -46t12.5 -49.5t5 -43t0.5 -34.5v-489q0 -69 -9 -115t-36 -86q-66 -96 -199 -96q-78 0 -137 35q-60 34 -80 86.5t-20 130.5zM111 1165l157 221h103l147 -221h-80 l-119 140l-124 -140h-84zM168 250q0 -170 147 -170q70 0 114 42t44 136v514q0 178 -145 178q-46 0 -78 -15.5t-47.5 -35t-24 -52t-9.5 -51t-1 -48.5v-498z" />
<glyph unicode="&#xf5;" d="M80 248v540q0 59 17 105t42.5 72t60.5 43t65 22.5t61 5.5q49 0 87.5 -11.5t62.5 -27.5t41.5 -42t25.5 -46t12.5 -49.5t5 -43t0.5 -34.5v-489q0 -69 -9 -115t-36 -86q-66 -96 -199 -96q-78 0 -137 35q-60 34 -80 86.5t-20 130.5zM96 1210q18 26 28.5 39t31 34t43.5 30.5 t49 9.5q33 0 82 -18q67 -31 90 -31q26 0 43.5 13.5t50.5 51.5q1 -1 14.5 -11t18.5 -15q-43 -67 -75 -97t-77 -30q-13 0 -87.5 25.5t-90.5 25.5q-46 0 -88 -53q-18 10 -33 26zM168 250q0 -170 147 -170q70 0 114 42t44 136v514q0 178 -145 178q-46 0 -78 -15.5t-47.5 -35 t-24 -52t-9.5 -51t-1 -48.5v-498z" />
<glyph unicode="&#xf6;" d="M80 248v540q0 59 17 105t42.5 72t60.5 43t65 22.5t61 5.5q49 0 87.5 -11.5t62.5 -27.5t41.5 -42t25.5 -46t12.5 -49.5t5 -43t0.5 -34.5v-489q0 -69 -9 -115t-36 -86q-66 -96 -199 -96q-78 0 -137 35q-60 34 -80 86.5t-20 130.5zM168 250q0 -170 147 -170q70 0 114 42 t44 136v514q0 178 -145 178q-46 0 -78 -15.5t-47.5 -35t-24 -52t-9.5 -51t-1 -48.5v-498zM170 1198v158h98v-158h-98zM373 1198v158h98v-158h-98z" />
<glyph unicode="&#xf7;" horiz-adv-x="1024" d="M0 549v94h1024v-94h-1024zM436 348q0 33 22.5 56.5t55.5 23.5q36 0 59 -23.5t23 -56.5t-22.5 -56.5t-57.5 -23.5t-57.5 23.5t-22.5 56.5zM436 844q0 33 22.5 56.5t55.5 23.5q36 0 59 -23.5t23 -56.5t-22.5 -56.5t-57.5 -23.5t-57.5 23.5t-22.5 56.5z" />
<glyph unicode="&#xf8;" d="M45 10l55 109q-22 71 -22 121v518q0 276 250 276q44 0 78 -7.5t56 -22.5t33.5 -26.5t24.5 -29.5l45 84q5 -2 18.5 -9t18.5 -9l-59 -115q16 -59 16 -108v-545q0 -118 -65 -184t-185 -66q-118 0 -186 82l-43 -86q-5 3 -35 18zM166 250l299 588q-5 22 -11 36t-20.5 34.5 t-43 31t-68.5 10.5q-37 0 -65.5 -10t-44.5 -29.5t-26.5 -38t-14 -45t-4.5 -40t-1 -33.5v-504zM174 176q31 -98 143 -98q32 0 57.5 8.5t41.5 20t27.5 32.5t17 37.5t8.5 45t3.5 44.5t0.5 45v445z" />
<glyph unicode="&#xf9;" horiz-adv-x="681" d="M82 1389h199l178 -224h-68zM102 238v794h86v-774q0 -188 136 -188q30 0 55 10t40.5 23t29.5 34t20 34t14 32v829h88v-1030h-88v96q-15 -19 -27 -31.5t-35.5 -31.5t-55 -29t-68.5 -10q-62 0 -113 33q-29 19 -47 46.5t-25 60.5t-8.5 52.5t-1.5 49.5z" />
<glyph unicode="&#xfa;" horiz-adv-x="681" d="M102 238v794h86v-774q0 -188 136 -188q30 0 55 10t40.5 23t29.5 34t20 34t14 32v829h88v-1030h-88v96q-15 -19 -27 -31.5t-35.5 -31.5t-55 -29t-68.5 -10q-62 0 -113 33q-29 19 -47 46.5t-25 60.5t-8.5 52.5t-1.5 49.5zM215 1161l172 223h195l-293 -223h-74z" />
<glyph unicode="&#xfb;" horiz-adv-x="681" d="M102 238v794h86v-774q0 -188 136 -188q30 0 55 10t40.5 23t29.5 34t20 34t14 32v829h88v-1030h-88v96q-15 -19 -27 -31.5t-35.5 -31.5t-55 -29t-68.5 -10q-62 0 -113 33q-29 19 -47 46.5t-25 60.5t-8.5 52.5t-1.5 49.5zM133 1165l158 221h102l148 -221h-80l-119 140 l-125 -140h-84z" />
<glyph unicode="&#xfc;" horiz-adv-x="681" d="M102 238v794h86v-774q0 -188 136 -188q30 0 55 10t40.5 23t29.5 34t20 34t14 32v829h88v-1030h-88v96q-15 -19 -27 -31.5t-35.5 -31.5t-55 -29t-68.5 -10q-62 0 -113 33q-29 19 -47 46.5t-25 60.5t-8.5 52.5t-1.5 49.5zM186 1198v158h99v-158h-99zM389 1198v158h98v-158 h-98z" />
<glyph unicode="&#xfd;" horiz-adv-x="598" d="M18 -248q32 -4 45 -4q47 0 81 16.5t51 43.5t23.5 44.5t10.5 36.5l25 119l-223 1024h88l180 -856l182 856h92l-264 -1147q-14 -61 -37.5 -103t-47.5 -64.5t-62 -34.5t-67.5 -14.5t-76.5 -2.5v86zM174 1161l172 223h195l-293 -223h-74z" />
<glyph unicode="&#xfe;" horiz-adv-x="681" d="M111 -334v1782h84v-514q17 22 29 34.5t36.5 32t57 29.5t71.5 10q71 0 115.5 -39.5t62.5 -95.5q17 -54 17 -172v-500q0 -64 -19.5 -112.5t-51 -74t-66 -38t-70.5 -12.5q-49 0 -88 17t-54.5 32t-35.5 39v-418h-88zM199 193q0 -8 9.5 -26t27 -39t50.5 -36.5t72 -15.5 t66.5 15t41 34t21 51t8.5 51t1 49v525q0 49 -14 83.5t-36.5 50t-43 22t-40.5 6.5q-40 0 -73.5 -17t-51.5 -41t-28 -45t-10 -33v-634z" />
<glyph unicode="&#xff;" horiz-adv-x="598" d="M18 -248q32 -4 45 -4q47 0 81 16.5t51 43.5t23.5 44.5t10.5 36.5l25 119l-223 1024h88l180 -856l182 856h92l-264 -1147q-14 -61 -37.5 -103t-47.5 -64.5t-62 -34.5t-67.5 -14.5t-76.5 -2.5v86zM166 1198v158h98v-158h-98zM369 1198v158h98v-158h-98z" />
<glyph unicode="&#x152;" horiz-adv-x="1110" d="M102 283v833q0 114 23.5 181.5t81.5 109.5q71 55 184 55q54 0 98.5 -15.5t63 -29.5t43.5 -37v68h473v-90h-377v-565h334v-86h-332v-619h377v-88h-473v82q-17 -21 -29.5 -33t-40 -31t-66 -28.5t-87.5 -9.5q-136 0 -204.5 82t-68.5 221zM199 334q0 -117 20 -162 q22 -48 67 -77t101 -29q24 0 50 5.5t55.5 21.5t52.5 39.5t38 64.5t15 92v772q0 36 -0.5 56t-4.5 57.5t-11.5 61t-23 53t-37.5 46.5t-56 29t-78 12q-51 0 -89 -18t-59 -49t-30.5 -66t-9.5 -76v-833z" />
<glyph unicode="&#x153;" horiz-adv-x="1024" d="M86 264v467q0 63 1.5 92t11 64t30.5 61q20 31 69 57.5t126 26.5q43 0 77 -9t58 -27t35 -30t28 -34q12 19 23.5 32t35 31.5t59.5 28.5t81 10q109 0 170 -67q26 -31 38.5 -75t14.5 -77.5t2 -101.5v-191h-385v-203q0 -31 1 -49.5t4.5 -52t13.5 -54t26 -43t44 -33.5t65 -11 t59 10q84 33 84 152v108h88q0 -85 -0.5 -114.5t-6 -63.5t-17.5 -59q-27 -58 -80 -87.5t-121 -29.5q-51 0 -89 11t-61.5 32.5t-34 36.5t-22.5 39q-78 -119 -207 -119q-46 0 -82 11.5t-58.5 28t-39 43t-24 48t-12 53t-5 47.5t-0.5 41zM172 319q0 -33 0.5 -50t3 -47t8 -47 t16 -38.5t25.5 -33t38.5 -19.5t53.5 -8q156 0 156 200v494q0 182 -149 182q-46 0 -82 -20q-25 -15 -40.5 -34.5t-21 -44.5t-7 -40.5t-1.5 -42.5v-451zM559 596h299v168q0 190 -141 190q-66 0 -112 -45.5t-46 -142.5v-170z" />
<glyph unicode="&#x178;" horiz-adv-x="724" d="M29 1446h106l230 -680l231 680h111l-295 -807v-639h-99v639zM160 1616v156h106v-156h-106zM463 1616v156h106v-156h-106z" />
<glyph unicode="&#x2c6;" horiz-adv-x="468" d="M31 1165l157 221h103l147 -221h-80l-118 140l-125 -140h-84z" />
<glyph unicode="&#x2dc;" horiz-adv-x="468" d="M8 1210q18 26 28.5 39t31 34t43.5 30.5t49 9.5q33 0 82 -18q67 -31 90 -31q26 0 43.5 13.5t50.5 51.5q1 -1 14.5 -11t18.5 -15q-43 -67 -75 -97t-77 -30q-13 0 -87.5 25.5t-90.5 25.5q-46 0 -88 -53q-17 10 -33 26z" />
<glyph unicode="&#x2000;" horiz-adv-x="901" />
<glyph unicode="&#x2001;" horiz-adv-x="1802" />
<glyph unicode="&#x2002;" horiz-adv-x="901" />
<glyph unicode="&#x2003;" horiz-adv-x="1802" />
<glyph unicode="&#x2004;" horiz-adv-x="600" />
<glyph unicode="&#x2005;" horiz-adv-x="450" />
<glyph unicode="&#x2006;" horiz-adv-x="300" />
<glyph unicode="&#x2007;" horiz-adv-x="300" />
<glyph unicode="&#x2008;" horiz-adv-x="225" />
<glyph unicode="&#x2009;" horiz-adv-x="360" />
<glyph unicode="&#x200a;" horiz-adv-x="100" />
<glyph unicode="&#x2010;" horiz-adv-x="512" d="M76 555v88h362v-88h-362z" />
<glyph unicode="&#x2011;" horiz-adv-x="512" d="M76 555v88h362v-88h-362z" />
<glyph unicode="&#x2012;" horiz-adv-x="512" d="M76 555v88h362v-88h-362z" />
<glyph unicode="&#x2013;" horiz-adv-x="724" d="M72 555v88h581v-88h-581z" />
<glyph unicode="&#x2014;" horiz-adv-x="980" d="M70 555v86h841v-86h-841z" />
<glyph unicode="&#x2018;" horiz-adv-x="299" d="M111 1075v187q0 88 22 124t70 60v-45q-30 -21 -40 -48t-9 -91h49v-187h-92z" />
<glyph unicode="&#x2019;" horiz-adv-x="299" d="M102 1075v45q31 21 41.5 47.5t10.5 92.5h-50v186h93v-186q0 -61 -13.5 -99.5t-31 -54t-50.5 -31.5z" />
<glyph unicode="&#x201a;" horiz-adv-x="299" d="M102 -139q32 21 42 47t10 92h-50v186h93v-186q0 -61 -13.5 -99t-31 -53.5t-50.5 -31.5v45z" />
<glyph unicode="&#x201c;" horiz-adv-x="512" d="M88 1075v187q0 88 22 124t70 60v-45q-30 -21 -39.5 -47t-9.5 -92h49v-187h-92zM311 1075v187q0 88 22 124t70 60v-45q-30 -21 -40 -47.5t-9 -91.5h49v-187h-92z" />
<glyph unicode="&#x201d;" horiz-adv-x="512" d="M96 1075v45q31 21 41 47t10 93h-49v186h92v-186q0 -61 -13.5 -99.5t-31 -54t-49.5 -31.5zM319 1075v45q31 21 41.5 47.5t10.5 92.5h-49v186h92v-186q0 -61 -13.5 -99.5t-31 -54t-50.5 -31.5z" />
<glyph unicode="&#x201e;" horiz-adv-x="512" d="M98 0v186h92v-186q0 -88 -22 -124t-70 -60v45q29 20 39.5 47t9.5 92h-49zM319 -139q32 22 42 48.5t10 90.5h-49v186h92v-186q0 -61 -13.5 -99t-31 -53.5t-50.5 -31.5v45z" />
<glyph unicode="&#x2022;" horiz-adv-x="681" d="M111 723q0 95 67 162t164 67q101 0 165 -66.5t64 -160.5q0 -100 -64 -165.5t-163 -65.5q-98 0 -165.5 65.5t-67.5 163.5z" />
<glyph unicode="&#x2026;" horiz-adv-x="2048" d="M299 0v184h90v-184h-90zM981 0v184h90v-184h-90zM1663 0v184h90v-184h-90z" />
<glyph unicode="&#x202f;" horiz-adv-x="360" />
<glyph unicode="&#x2039;" horiz-adv-x="512" d="M72 600l254 205h123l-250 -205l239 -205h-114z" />
<glyph unicode="&#x203a;" horiz-adv-x="512" d="M55 391l264 205l-249 205h125l245 -203l-256 -207h-129z" />
<glyph unicode="&#x205f;" horiz-adv-x="450" />
<glyph unicode="&#x2122;" horiz-adv-x="1406" d="M57 1372v74h527v-74h-219v-604h-82v604h-226zM643 768v678h121l182 -569l180 569h121v-678h-80v461l2 137l-190 -598h-72l-190 598l4 -137v-461h-78z" />
<glyph unicode="&#xe000;" horiz-adv-x="1034" d="M0 0v1034h1034v-1034h-1034z" />
<glyph unicode="&#xfb01;" horiz-adv-x="681" d="M35 948v84h123v207q0 18 0.5 29.5t4 35t10 40.5t20 37.5t32 33.5t48.5 22t67 9q17 0 53 -4v-80q-12 2 -35 2q-116 0 -116 -129v-203h127v-84h-131v-948h-86v948h-117zM489 0v1032h86v-1032h-86zM489 1151v160h86v-160h-86z" />
<glyph unicode="&#xfb02;" horiz-adv-x="681" d="M35 948v84h123v207q0 18 0.5 29.5t4 35t10 40.5t20 37.5t32 33.5t48.5 22t67 9q19 0 51 -4v-80q-12 2 -35 2q-114 0 -114 -129v-203h127v-84h-131v-948h-86v948h-117zM489 0v1446h89v-1446h-89z" />
</font>
</defs>
</svg>
